<?xml version="1.0" standalone="no"?>
<!DOCTYPE svg PUBLIC "-//W3C//DTD SVG 1.1//EN" "http://www.w3.org/Graphics/SVG/1.1/DTD/svg11.dtd" >
<svg xmlns="http://www.w3.org/2000/svg" width="100%" height="100%">
<metadata>
Created by FontXChange 20100429 at Thu Aug  2 15:17:06 2012
 By Aaron
Copyright (C) 2006, 2010 Hoefler &#38; Frere-Jones. http://www.typography.com
</metadata>
<defs>
<font id="Forza-Medium" horiz-adv-x="500" >
  <font-face 
    font-family="Forza Medium"
    font-weight="350"
    font-stretch="normal"
    units-per-em="1000"
    panose-1="0 0 0 0 0 0 0 0 0 0"
    ascent="800"
    descent="-200"
    x-height="540"
    cap-height="700"
    bbox="-61 -325 966 1012"
    underline-thickness="50"
    underline-position="-50"
    stemh="96"
    stemv="104"
    unicode-range="U+0020-FB04"
  />
<missing-glyph 
d="M0 -200v1000h500v-1000h-500zM71 750l179 -390l179 390h-358zM50 -76l172 376l-172 376v-752zM450 676l-172 -376l172 -376v752zM250 240l-179 -390h358z" />
    <glyph glyph-name="fi" unicode="fi" horiz-adv-x="625" 
d="M226 0h-105v449h-89v91h89v28c0 68 9 101 29 121s41 31 91 31h96v-89h-73c-18 0 -25 -2 -31 -8c-5 -5 -8 -20 -8 -54v-29h121v-91h-120v-449zM556 730v-112h-118v112h118zM549 540v-540h-104v540h104z" />
    <glyph glyph-name="fl" unicode="fl" horiz-adv-x="625" 
d="M226 0h-105v449h-89v91h89v28c0 68 9 101 29 121s41 31 91 31h96v-89h-73c-18 0 -25 -2 -31 -8c-5 -5 -8 -20 -8 -54v-29h121v-91h-120v-449zM549 0h-104v720h104v-720z" />
    <glyph glyph-name="f_f" unicode="ff" horiz-adv-x="738" 
d="M226 0h-105v449h-89v91h89v28c0 68 9 101 29 121s41 31 91 31h96v-89h-73c-18 0 -25 -2 -31 -8c-5 -5 -8 -20 -8 -54v-29h121v-91h-120v-449zM595 0h-105v449h-89v91h89v28c0 68 9 101 29 121s41 31 91 31h96v-89h-73c-18 0 -25 -2 -31 -8c-5 -5 -8 -20 -8 -54v-29h121
v-91h-120v-449z" />
    <glyph glyph-name="f_f_i" unicode="ffi" horiz-adv-x="994" 
d="M226 0h-105v449h-89v91h89v28c0 68 9 101 29 121s41 31 91 31h96v-89h-73c-18 0 -25 -2 -31 -8c-5 -5 -8 -20 -8 -54v-29h121v-91h-120v-449zM595 0h-105v449h-89v91h89v28c0 68 9 101 29 121s41 31 91 31h96v-89h-73c-18 0 -25 -2 -31 -8c-5 -5 -8 -20 -8 -54v-29h121
v-91h-120v-449zM925 730v-112h-118v112h118zM918 540v-540h-104v540h104z" />
    <glyph glyph-name="f_f_l" unicode="ffl" horiz-adv-x="994" 
d="M226 0h-105v449h-89v91h89v28c0 68 9 101 29 121s41 31 91 31h96v-89h-73c-18 0 -25 -2 -31 -8c-5 -5 -8 -20 -8 -54v-29h121v-91h-120v-449zM595 0h-105v449h-89v91h89v28c0 68 9 101 29 121s41 31 91 31h96v-89h-73c-18 0 -25 -2 -31 -8c-5 -5 -8 -20 -8 -54v-29h121
v-91h-120v-449zM918 0h-104v720h104v-720z" />
    <glyph glyph-name=".notdef" 
d="M0 -200v1000h500v-1000h-500zM71 750l179 -390l179 390h-358zM50 -76l172 376l-172 376v-752zM450 676l-172 -376l172 -376v752zM250 240l-179 -390h358z" />
    <glyph glyph-name="A" unicode="A" horiz-adv-x="658" 
d="M519 0l-61 197h-267l-61 -197h-111l222 676c7 23 13 27 40 27h97c25 0 32 -4 40 -27l222 -676h-121zM317 605l-97 -314h208l-96 314h-15z" />
    <glyph glyph-name="B" unicode="B" horiz-adv-x="665" 
d="M82 0v700h365c51 0 87 -8 110 -29c30 -27 43 -62 43 -164c0 -97 -35 -126 -103 -143v-2c80 -13 110 -50 110 -157c0 -115 -17 -147 -46 -174c-22 -21 -63 -31 -112 -31h-367zM194 410h230c31 0 41 2 48 8c10 9 16 25 16 90c0 64 -5 79 -15 88c-6 6 -17 8 -49 8h-230v-194
zM495 204c0 79 -9 95 -18 104c-6 6 -14 8 -47 8h-236v-220h236c31 0 42 1 49 8c8 8 16 24 16 100z" />
    <glyph glyph-name="C" unicode="C" horiz-adv-x="664" 
d="M612 241c-5 -139 -21 -178 -60 -213c-23 -21 -48 -28 -114 -28h-194c-66 0 -91 7 -114 28c-39 35 -63 86 -63 322s24 287 63 322c23 21 48 28 114 28h194c66 0 91 -7 114 -28c39 -35 57 -81 59 -202h-112c-3 88 -12 113 -23 123c-8 7 -16 11 -50 11h-170
c-34 0 -42 -4 -50 -11c-11 -10 -25 -41 -25 -243s14 -233 25 -243c8 -7 16 -11 50 -11h170c34 -1 42 4 50 11c11 10 20 30 23 134h113z" />
    <glyph glyph-name="D" unicode="D" horiz-adv-x="682" 
d="M82 700h304c85 0 131 -14 170 -49c46 -42 68 -129 68 -301s-22 -259 -68 -301c-39 -35 -85 -49 -170 -49h-304v700zM510 349c0 161 -12 208 -39 233c-22 20 -42 22 -85 22h-192v-508h192c43 0 65 3 85 22c27 25 39 73 39 231z" />
    <glyph glyph-name="E" unicode="E" horiz-adv-x="609" 
d="M560 96v-96h-478v700h478v-96h-366v-193h303v-96h-303v-219h366z" />
    <glyph glyph-name="F" unicode="F" horiz-adv-x="567" 
d="M533 604h-339v-210h270v-96h-270v-298h-112v700h451v-96z" />
    <glyph glyph-name="G" unicode="G" horiz-adv-x="678" 
d="M244 700h197c66 0 91 -7 114 -28c39 -35 53 -68 55 -192h-109c-2 83 -11 103 -22 113c-8 7 -16 11 -50 11h-173c-34 0 -42 -4 -50 -11c-11 -10 -25 -41 -25 -243s14 -233 25 -243c8 -7 16 -11 50 -11h173c34 -1 42 4 50 11c11 10 24 45 24 129v35h-163v96h276v-89
c0 -154 -22 -215 -61 -250c-23 -21 -48 -28 -114 -28h-197c-66 0 -91 7 -114 28c-39 35 -63 86 -63 322s24 287 63 322c23 21 48 28 114 28z" />
    <glyph glyph-name="H" unicode="H" horiz-adv-x="722" 
d="M640 700v-700h-112v315h-334v-315h-112v700h112v-289h334v289h112z" />
    <glyph glyph-name="I" unicode="I" horiz-adv-x="288" 
d="M200 0h-112v700h112v-700z" />
    <glyph glyph-name="J" unicode="J" horiz-adv-x="577" 
d="M138 232c3 -83 7 -110 18 -121c9 -9 19 -15 51 -15h48c77 0 95 7 104 16c15 15 24 38 24 167v421h112v-411c0 -176 -15 -215 -52 -252c-32 -32 -81 -39 -173 -39h-71c-56 0 -100 9 -125 34c-31 31 -42 70 -44 200h108z" />
    <glyph glyph-name="K" unicode="K" horiz-adv-x="627" 
d="M484 700h130l-270 -330l276 -370h-133l-231 315h-62v-315h-112v700h112v-289h60z" />
    <glyph glyph-name="L" unicode="L" horiz-adv-x="562" 
d="M194 700v-604h339v-96h-451v700h112z" />
    <glyph glyph-name="M" unicode="M" horiz-adv-x="893" 
d="M811 700v-700h-114v595h-15l-163 -564c-8 -26 -12 -31 -39 -31h-72c-27 0 -32 5 -39 31l-163 574h-15v-605h-109v700h174c28 0 37 -9 44 -35l142 -519h15l141 519c7 26 15 35 43 35h170z" />
    <glyph glyph-name="N" unicode="N" horiz-adv-x="721" 
d="M639 700v-700h-114c-29 0 -40 6 -52 33l-267 515h-15v-548h-109v700h124c29 0 39 -6 51 -33l258 -491h15v524h109z" />
    <glyph glyph-name="O" unicode="O" horiz-adv-x="688" 
d="M244 700h200c66 0 91 -7 114 -28c39 -35 63 -86 63 -322s-24 -287 -63 -322c-23 -21 -48 -28 -114 -28h-200c-66 0 -91 7 -114 28c-39 35 -63 86 -63 322s24 287 63 322c23 21 48 28 114 28zM181 350c0 -202 14 -233 25 -243c8 -7 16 -11 50 -11h176c34 -1 42 4 50 11
c11 10 25 41 25 243s-14 233 -25 243c-8 7 -16 11 -50 11h-176c-34 0 -42 -4 -50 -11c-11 -10 -25 -41 -25 -243z" />
    <glyph glyph-name="P" unicode="P" horiz-adv-x="630" 
d="M194 354h209c35 0 47 3 54 9c11 9 25 32 25 116c0 85 -14 107 -25 116c-7 6 -19 9 -54 9h-209v-250zM596 476c0 -120 -28 -165 -57 -192c-22 -20 -57 -26 -108 -26h-237v-258h-112v700h349c51 0 86 -6 108 -26c30 -27 57 -72 57 -198z" />
    <glyph glyph-name="Q" unicode="Q" horiz-adv-x="688" 
d="M502 -108h-104l-32 108h-122c-66 0 -91 7 -114 28c-39 35 -63 86 -63 322s24 287 63 322c23 21 48 28 114 28h200c66 0 91 -7 114 -28c39 -35 63 -86 63 -322s-24 -287 -63 -322c-20 -18 -41 -26 -88 -28zM181 350c0 -202 14 -233 25 -243c8 -7 16 -11 50 -11h81l-41 141
h104l42 -141c25 1 33 5 40 11c11 10 25 41 25 243s-14 233 -25 243c-8 7 -16 11 -50 11h-176c-34 0 -42 -4 -50 -11c-11 -10 -25 -41 -25 -243z" />
    <glyph glyph-name="R" unicode="R" horiz-adv-x="673" 
d="M194 381h232c29 0 38 5 43 10c9 9 22 31 22 103s-12 93 -21 102c-5 5 -15 8 -44 8h-232v-223zM483 193c-1 56 -8 70 -22 82c-13 11 -33 14 -73 14h-194v-289h-112v700h377c46 0 79 -8 100 -29c27 -27 45 -65 45 -170c0 -123 -34 -158 -114 -169v-2
c74 -14 103 -32 107 -134c4 -98 7 -158 11 -196h-112c-7 47 -11 113 -13 193z" />
    <glyph glyph-name="S" unicode="S" horiz-adv-x="653" 
d="M594 203c0 -97 -9 -139 -41 -171c-21 -21 -52 -32 -108 -32h-235c-55 0 -87 7 -109 29c-29 29 -38 63 -40 191h111c2 -87 5 -105 13 -113c6 -6 14 -11 44 -11h197c29 0 38 3 46 11c9 9 11 36 11 95c0 51 -1 67 -12 78c-8 8 -18 11 -46 13l-220 20c-51 5 -81 15 -102 36
c-28 28 -33 61 -33 153c0 90 9 134 41 166c21 21 53 32 106 32h216c55 0 87 -7 109 -29c29 -29 36 -61 40 -186h-111c-2 82 -5 100 -13 108c-6 6 -14 11 -44 11h-177c-28 0 -37 -3 -45 -11c-9 -9 -11 -37 -11 -90c0 -49 1 -66 12 -77c8 -8 18 -9 46 -12l220 -20
c48 -4 79 -14 100 -35c27 -27 35 -61 35 -156z" />
    <glyph glyph-name="T" unicode="T" horiz-adv-x="600" 
d="M576 604h-220v-604h-112v604h-220v96h552v-96z" />
    <glyph glyph-name="U" unicode="U" horiz-adv-x="709" 
d="M627 700v-409c0 -176 -15 -212 -52 -249c-32 -32 -80 -42 -172 -42h-102c-91 0 -138 11 -168 41c-37 37 -51 72 -51 250v409h112v-433c0 -127 10 -138 24 -152c11 -11 30 -16 107 -16h63c75 0 93 4 105 16c15 15 22 23 22 152v433h112z" />
    <glyph glyph-name="V" unicode="V" horiz-adv-x="640" 
d="M621 700l-213 -676c-7 -23 -13 -27 -40 -27h-97c-25 0 -33 4 -40 27l-213 676h121l177 -592h15l177 592h113z" />
    <glyph glyph-name="W" unicode="W" horiz-adv-x="947" 
d="M916 700l-148 -679c-4 -20 -11 -24 -40 -24h-81c-29 0 -35 4 -40 26l-126 527h-13l-126 -527c-5 -22 -13 -26 -40 -26h-82c-29 0 -36 3 -40 24l-149 679h119l107 -558h13l126 527c6 28 15 33 44 33h73c29 0 38 -5 44 -33l125 -527h13l108 558h113z" />
    <glyph glyph-name="X" unicode="X" horiz-adv-x="643" 
d="M506 0l-182 265h-9l-179 -265h-119l241 358l-233 342h130l168 -251h9l167 251h124l-233 -344l241 -356h-125z" />
    <glyph glyph-name="Y" unicode="Y" horiz-adv-x="607" 
d="M604 700l-243 -420v-280h-112v277l-246 423h123l176 -311h8l173 311h121z" />
    <glyph glyph-name="Z" unicode="Z" horiz-adv-x="625" 
d="M578 96v-96h-530v73l394 531h-374v96h515v-73l-394 -531h389z" />
    <glyph glyph-name="a" unicode="a" horiz-adv-x="574" 
d="M75 376c1 82 12 113 33 134s43 30 91 30h166c61 0 87 -11 105 -29c25 -25 31 -51 31 -147v-364h-103v66c-65 -54 -84 -67 -132 -67h-84c-49 0 -75 6 -97 28c-19 19 -32 50 -32 118c0 64 12 106 33 127c24 24 48 39 179 39c53 0 101 -5 133 -15v60c0 63 -4 79 -12 87
c-7 7 -18 9 -47 9h-108c-25 0 -36 -2 -43 -9c-8 -8 -10 -26 -12 -67h-101zM284 88c40 0 64 6 114 33v112h-140c-68 0 -81 -5 -90 -14c-10 -10 -13 -22 -13 -57c0 -40 2 -58 10 -66c7 -7 18 -8 42 -8h77z" />
    <glyph glyph-name="b" unicode="b" horiz-adv-x="603" 
d="M76 0v720h104v-245c68 56 90 66 135 66h73c58 0 87 -10 110 -33c29 -29 43 -70 43 -238s-14 -209 -43 -238c-23 -23 -52 -33 -110 -33h-73c-45 0 -67 10 -135 65v-64h-104zM281 448c-33 0 -61 -10 -101 -30v-294c42 -22 71 -32 105 -32h78c33 0 46 4 55 13
c15 15 19 44 19 165s-4 150 -19 165c-9 9 -22 13 -55 13h-82z" />
    <glyph glyph-name="c" unicode="c" horiz-adv-x="555" 
d="M403 197h101c0 -112 -10 -143 -37 -170c-16 -16 -41 -27 -88 -27h-165c-53 0 -85 9 -107 31c-35 35 -45 77 -45 239s10 204 45 239c22 22 54 31 107 31h164c49 0 71 -10 88 -27c26 -26 36 -62 36 -163h-101c-2 70 -6 82 -12 88s-14 9 -37 9h-125c-31 0 -39 -3 -46 -10
c-10 -10 -15 -29 -15 -167s5 -157 15 -167c7 -7 15 -10 46 -10h126c22 0 32 2 39 9s11 27 11 95z" />
    <glyph glyph-name="d" unicode="d" horiz-adv-x="603" 
d="M527 0h-104v65c-68 -55 -91 -66 -135 -66h-73c-58 0 -87 10 -110 33c-29 29 -43 70 -43 238s14 209 43 238c23 23 52 33 110 33h73c44 0 66 -10 135 -66v245h104v-720zM318 92c33 0 62 9 105 32v294c-41 21 -68 30 -101 30h-82c-33 0 -46 -4 -55 -13
c-15 -15 -19 -44 -19 -165s4 -150 19 -165c9 -9 22 -13 55 -13h78z" />
    <glyph glyph-name="e" unicode="e" horiz-adv-x="573" 
d="M502 236h-337c1 -106 7 -127 15 -135s15 -10 46 -10h140c23 0 30 4 36 10c7 7 9 19 11 67h101c-2 -84 -10 -114 -37 -141c-17 -17 -40 -27 -88 -27h-175c-53 0 -85 9 -107 31c-35 35 -45 77 -45 239s10 204 45 239c22 22 54 31 107 31h148c53 0 87 -10 107 -30
c35 -35 45 -77 45 -235v-27c0 -8 -3 -12 -12 -12zM179 438c-9 -9 -13 -27 -14 -119h246c0 91 -6 111 -15 120c-6 6 -15 10 -46 10h-124c-31 0 -39 -3 -47 -11z" />
    <glyph glyph-name="f" unicode="f" horiz-adv-x="369" 
d="M226 0h-105v449h-89v91h89v28c0 68 9 101 29 121s41 31 91 31h96v-89h-73c-18 0 -25 -2 -31 -8c-5 -5 -8 -20 -8 -54v-29h121v-91h-120v-449z" />
    <glyph glyph-name="g" unicode="g" horiz-adv-x="603" 
d="M388 -150h-193c-46 0 -70 10 -88 28c-20 20 -29 48 -29 106h104c1 -24 4 -33 11 -40c6 -6 14 -8 41 -8h131c29 0 40 2 47 9c8 8 11 17 11 67v112c-69 -55 -91 -65 -135 -65h-72c-58 0 -87 10 -110 33c-29 29 -43 61 -43 208s14 179 43 208c23 23 52 33 110 33h72
c44 0 66 -10 135 -66v65h104v-514c0 -96 -9 -122 -34 -147c-18 -18 -44 -29 -105 -29zM322 151c32 0 61 9 101 30v236c-42 22 -72 32 -105 32h-77c-33 0 -46 -4 -55 -13c-15 -15 -19 -29 -19 -136s4 -121 19 -136c9 -9 22 -13 55 -13h81z" />
    <glyph glyph-name="h" unicode="h" horiz-adv-x="598" 
d="M180 0h-104v720h104v-245c68 56 90 66 135 66h85c47 0 73 -11 93 -31c21 -21 32 -47 32 -122v-388h-104v381c0 26 -4 42 -14 52c-11 11 -21 15 -56 15h-70c-33 0 -61 -10 -101 -30v-418z" />
    <glyph glyph-name="i" unicode="i" horiz-adv-x="256" 
d="M187 730v-112h-118v112h118zM180 540v-540h-104v540h104z" />
    <glyph glyph-name="j" unicode="j" horiz-adv-x="270" 
d="M90 540v-551c0 -26 -5 -37 -11 -43s-14 -8 -34 -8h-48v-85c20 -3 47 -5 60 -5c48 0 81 8 103 30c24 24 34 55 34 132v530h-104zM201 730v-112h-118v112h118z" />
    <glyph glyph-name="k" unicode="k" horiz-adv-x="534" 
d="M180 0h-104v720h104v-402h39l179 222h123l-221 -259l229 -281h-130l-183 231h-36v-231z" />
    <glyph glyph-name="l" unicode="l" horiz-adv-x="256" 
d="M180 0h-104v720h104v-720z" />
    <glyph glyph-name="m" unicode="m" horiz-adv-x="903" 
d="M76 540h104v-65c68 56 90 66 135 66h65c47 0 73 -11 93 -31c10 -11 18 -22 24 -41c75 61 97 72 143 72h65c47 0 73 -11 93 -31c21 -21 32 -47 32 -122v-388h-104v381c0 26 -4 42 -14 52c-11 11 -21 15 -56 15h-50c-33 0 -62 -10 -102 -30c1 -9 1 -19 1 -30v-388h-104v381
c0 26 -4 42 -14 52c-11 11 -21 15 -56 15h-50c-33 0 -61 -10 -101 -30v-418h-104v540z" />
    <glyph glyph-name="n" unicode="n" horiz-adv-x="598" 
d="M180 0h-104v540h104v-65c68 56 90 66 135 66h85c47 0 73 -11 93 -31c21 -21 32 -47 32 -122v-388h-104v381c0 26 -4 42 -14 52c-11 11 -21 15 -56 15h-70c-33 0 -61 -10 -101 -30v-418z" />
    <glyph glyph-name="o" unicode="o" horiz-adv-x="587" 
d="M214 0c-53 0 -85 9 -107 31c-35 35 -45 77 -45 239s10 204 45 239c22 22 54 31 107 31h159c53 0 85 -9 107 -31c35 -35 45 -77 45 -239s-10 -204 -45 -239c-22 -22 -54 -31 -107 -31h-159zM166 270c0 -138 5 -157 15 -167c7 -7 15 -10 46 -10h133c31 0 39 3 46 10
c10 10 15 29 15 167s-5 157 -15 167c-7 7 -15 10 -46 10h-133c-31 0 -39 -3 -46 -10c-10 -10 -15 -29 -15 -167z" />
    <glyph glyph-name="p" unicode="p" horiz-adv-x="603" 
d="M76 540h104v-65c68 56 90 66 135 66h73c58 0 87 -10 110 -33c29 -29 43 -70 43 -238s-14 -209 -43 -238c-23 -23 -52 -33 -110 -33h-73c-45 0 -67 10 -135 65v-214h-104v690zM281 448c-33 0 -61 -10 -101 -30v-294c42 -22 71 -32 105 -32h78c33 0 46 4 55 13
c15 15 19 44 19 165s-4 150 -19 165c-9 9 -22 13 -55 13h-82z" />
    <glyph glyph-name="q" unicode="q" horiz-adv-x="603" 
d="M527 540v-690h-104v215c-68 -55 -91 -66 -135 -66h-73c-58 0 -87 10 -110 33c-29 29 -43 70 -43 238s14 209 43 238c23 23 52 33 110 33h73c44 0 66 -10 135 -66v65h104zM318 92c33 0 62 9 105 32v294c-41 21 -68 30 -101 30h-82c-33 0 -46 -4 -55 -13
c-15 -15 -19 -44 -19 -165s4 -150 19 -165c9 -9 22 -13 55 -13h78z" />
    <glyph glyph-name="r" unicode="r" horiz-adv-x="399" 
d="M180 0h-104v540h104v-79c53 56 82 80 125 80h64v-107h-76c-40 0 -71 -4 -113 -20v-414z" />
    <glyph glyph-name="s" unicode="s" horiz-adv-x="550" 
d="M495 157c0 -75 -9 -110 -32 -133c-17 -17 -41 -24 -81 -24h-208c-37 0 -70 7 -86 23c-23 23 -30 49 -32 147h96c2 -57 4 -70 10 -76c5 -5 11 -7 34 -7h158c21 0 30 3 35 8c6 6 9 16 9 56c0 36 -3 48 -10 55c-6 6 -12 9 -34 11l-183 19c-43 5 -64 11 -80 27
c-22 22 -28 52 -28 124c0 68 11 106 33 128c17 17 39 25 81 25h197c41 0 65 -7 81 -23c22 -22 30 -50 32 -143h-96c-2 56 -6 66 -11 71s-13 8 -33 8h-143c-19 0 -28 -2 -33 -7c-7 -7 -10 -18 -10 -53c0 -34 1 -46 8 -53s13 -9 37 -12l186 -19c42 -4 63 -11 78 -26
c20 -20 25 -55 25 -126z" />
    <glyph glyph-name="t" unicode="t" horiz-adv-x="387" 
d="M347 92v-70l-61 -18c-15 -4 -42 -8 -68 -8c-37 0 -62 6 -81 25c-18 18 -23 41 -23 84v344h-94v91h94v134h105v-134h129v-91h-129v-315c0 -25 2 -32 7 -37c4 -4 14 -5 39 -5h82z" />
    <glyph glyph-name="u" unicode="u" horiz-adv-x="598" 
d="M418 540h104v-540h-104v65c-68 -55 -91 -66 -135 -66h-85c-47 0 -73 11 -93 31c-21 21 -32 47 -32 122v388h104v-381c0 -26 4 -42 14 -52c11 -11 21 -15 56 -15h70c33 0 60 9 101 30v418z" />
    <glyph glyph-name="v" unicode="v" horiz-adv-x="524" 
d="M510 540l-178 -516c-8 -21 -16 -26 -37 -26h-66c-21 0 -29 5 -37 26l-178 516h114l132 -422h12l130 422h108z" />
    <glyph glyph-name="w" unicode="w" horiz-adv-x="764" 
d="M25 540h108l76 -422h10l94 396c5 21 14 28 37 28h70c22 0 32 -7 37 -28l97 -396h10l74 422h101l-110 -515c-5 -22 -14 -27 -36 -27h-78c-23 0 -31 9 -36 28l-93 385h-8l-93 -385c-5 -20 -14 -28 -36 -28h-78c-22 0 -31 5 -36 27z" />
    <glyph glyph-name="x" unicode="x" horiz-adv-x="527" 
d="M123 0h-113l187 276l-186 264h122l131 -191h9l129 191h114l-187 -270l188 -270h-122l-133 195h-9z" />
    <glyph glyph-name="y" unicode="y" horiz-adv-x="548" 
d="M18 540h119l142 -393h7l126 393h112l-221 -625c-17 -48 -45 -67 -97 -67c-35 0 -80 4 -110 7v87h98c13 0 17 6 22 18l15 40z" />
    <glyph glyph-name="z" unicode="z" horiz-adv-x="502" 
d="M461 93v-93h-424v62l290 385h-274v93h414v-56l-295 -391h289z" />
    <glyph glyph-name="Aacute" unicode="&#xc1;" horiz-adv-x="658" 
d="M519 0l-61 197h-267l-61 -197h-111l222 676c7 23 13 27 40 27h97c25 0 32 -4 40 -27l222 -676h-121zM317 605l-97 -314h208l-96 314h-15zM264 758v5l85 107h166v-5l-150 -107h-101z" />
    <glyph glyph-name="aacute" unicode="&#xe1;" horiz-adv-x="574" 
d="M75 376c1 82 12 113 33 134s43 30 91 30h166c61 0 87 -11 105 -29c25 -25 31 -51 31 -147v-364h-103v66c-65 -54 -84 -67 -132 -67h-84c-49 0 -75 6 -97 28c-19 19 -32 50 -32 118c0 64 12 106 33 127c24 24 48 39 179 39c53 0 101 -5 133 -15v60c0 63 -4 79 -12 87
c-7 7 -18 9 -47 9h-108c-25 0 -36 -2 -43 -9c-8 -8 -10 -26 -12 -67h-101zM284 88c40 0 64 6 114 33v112h-140c-68 0 -81 -5 -90 -14c-10 -10 -13 -22 -13 -57c0 -40 2 -58 10 -66c7 -7 18 -8 42 -8h77zM232 608v5l85 107h166v-5l-150 -107h-101z" />
    <glyph glyph-name="Abreve" unicode="&#x102;" horiz-adv-x="658" 
d="M519 0l-61 197h-267l-61 -197h-111l222 676c7 23 13 27 40 27h97c25 0 32 -4 40 -27l222 -676h-121zM317 605l-97 -314h208l-96 314h-15zM326 830c47 0 68 19 76 50h76c-3 -79 -57 -125 -152 -125s-149 46 -152 125h76c8 -31 29 -50 76 -50z" />
    <glyph glyph-name="abreve" unicode="&#x103;" horiz-adv-x="574" 
d="M75 376c1 82 12 113 33 134s43 30 91 30h166c61 0 87 -11 105 -29c25 -25 31 -51 31 -147v-364h-103v66c-65 -54 -84 -67 -132 -67h-84c-49 0 -75 6 -97 28c-19 19 -32 50 -32 118c0 64 12 106 33 127c24 24 48 39 179 39c53 0 101 -5 133 -15v60c0 63 -4 79 -12 87
c-7 7 -18 9 -47 9h-108c-25 0 -36 -2 -43 -9c-8 -8 -10 -26 -12 -67h-101zM284 88c40 0 64 6 114 33v112h-140c-68 0 -81 -5 -90 -14c-10 -10 -13 -22 -13 -57c0 -40 2 -58 10 -66c7 -7 18 -8 42 -8h77zM294 680c47 0 68 19 76 50h76c-3 -79 -57 -125 -152 -125
s-149 46 -152 125h76c8 -31 29 -50 76 -50z" />
    <glyph glyph-name="Acircumflex" unicode="&#xc2;" horiz-adv-x="658" 
d="M519 0l-61 197h-267l-61 -197h-111l222 676c7 23 13 27 40 27h97c25 0 32 -4 40 -27l222 -676h-121zM317 605l-97 -314h208l-96 314h-15zM399 758l-74 52l-74 -52h-85v5l100 117h120l100 -117v-5h-87z" />
    <glyph glyph-name="acircumflex" unicode="&#xe2;" horiz-adv-x="574" 
d="M75 376c1 82 12 113 33 134s43 30 91 30h166c61 0 87 -11 105 -29c25 -25 31 -51 31 -147v-364h-103v66c-65 -54 -84 -67 -132 -67h-84c-49 0 -75 6 -97 28c-19 19 -32 50 -32 118c0 64 12 106 33 127c24 24 48 39 179 39c53 0 101 -5 133 -15v60c0 63 -4 79 -12 87
c-7 7 -18 9 -47 9h-108c-25 0 -36 -2 -43 -9c-8 -8 -10 -26 -12 -67h-101zM284 88c40 0 64 6 114 33v112h-140c-68 0 -81 -5 -90 -14c-10 -10 -13 -22 -13 -57c0 -40 2 -58 10 -66c7 -7 18 -8 42 -8h77zM367 608l-74 52l-74 -52h-85v5l100 117h120l100 -117v-5h-87z" />
    <glyph glyph-name="Adieresis" unicode="&#xc4;" horiz-adv-x="658" 
d="M519 0l-61 197h-267l-61 -197h-111l222 676c7 23 13 27 40 27h97c25 0 32 -4 40 -27l222 -676h-121zM317 605l-97 -314h208l-96 314h-15zM178 760v110h111v-110h-111zM363 760v110h111v-110h-111z" />
    <glyph glyph-name="adieresis" unicode="&#xe4;" horiz-adv-x="574" 
d="M75 376c1 82 12 113 33 134s43 30 91 30h166c61 0 87 -11 105 -29c25 -25 31 -51 31 -147v-364h-103v66c-65 -54 -84 -67 -132 -67h-84c-49 0 -75 6 -97 28c-19 19 -32 50 -32 118c0 64 12 106 33 127c24 24 48 39 179 39c53 0 101 -5 133 -15v60c0 63 -4 79 -12 87
c-7 7 -18 9 -47 9h-108c-25 0 -36 -2 -43 -9c-8 -8 -10 -26 -12 -67h-101zM284 88c40 0 64 6 114 33v112h-140c-68 0 -81 -5 -90 -14c-10 -10 -13 -22 -13 -57c0 -40 2 -58 10 -66c7 -7 18 -8 42 -8h77zM146 610v110h111v-110h-111zM331 610v110h111v-110h-111z" />
    <glyph glyph-name="Agrave" unicode="&#xc0;" horiz-adv-x="658" 
d="M519 0l-61 197h-267l-61 -197h-111l222 676c7 23 13 27 40 27h97c25 0 32 -4 40 -27l222 -676h-121zM317 605l-97 -314h208l-96 314h-15zM388 758h-101l-150 107v5h166l85 -107v-5z" />
    <glyph glyph-name="agrave" unicode="&#xe0;" horiz-adv-x="574" 
d="M75 376c1 82 12 113 33 134s43 30 91 30h166c61 0 87 -11 105 -29c25 -25 31 -51 31 -147v-364h-103v66c-65 -54 -84 -67 -132 -67h-84c-49 0 -75 6 -97 28c-19 19 -32 50 -32 118c0 64 12 106 33 127c24 24 48 39 179 39c53 0 101 -5 133 -15v60c0 63 -4 79 -12 87
c-7 7 -18 9 -47 9h-108c-25 0 -36 -2 -43 -9c-8 -8 -10 -26 -12 -67h-101zM284 88c40 0 64 6 114 33v112h-140c-68 0 -81 -5 -90 -14c-10 -10 -13 -22 -13 -57c0 -40 2 -58 10 -66c7 -7 18 -8 42 -8h77zM356 608h-101l-150 107v5h166l85 -107v-5z" />
    <glyph glyph-name="Amacron" unicode="&#x100;" horiz-adv-x="658" 
d="M519 0l-61 197h-267l-61 -197h-111l222 676c7 23 13 27 40 27h97c25 0 32 -4 40 -27l222 -676h-121zM317 605l-97 -314h208l-96 314h-15zM175 760v85h302v-85h-302z" />
    <glyph glyph-name="amacron" unicode="&#x101;" horiz-adv-x="574" 
d="M75 376c1 82 12 113 33 134s43 30 91 30h166c61 0 87 -11 105 -29c25 -25 31 -51 31 -147v-364h-103v66c-65 -54 -84 -67 -132 -67h-84c-49 0 -75 6 -97 28c-19 19 -32 50 -32 118c0 64 12 106 33 127c24 24 48 39 179 39c53 0 101 -5 133 -15v60c0 63 -4 79 -12 87
c-7 7 -18 9 -47 9h-108c-25 0 -36 -2 -43 -9c-8 -8 -10 -26 -12 -67h-101zM284 88c40 0 64 6 114 33v112h-140c-68 0 -81 -5 -90 -14c-10 -10 -13 -22 -13 -57c0 -40 2 -58 10 -66c7 -7 18 -8 42 -8h77zM143 610v85h302v-85h-302z" />
    <glyph glyph-name="Aogonek" unicode="&#x104;" horiz-adv-x="659" 
d="M577 -70h75c0 -75 -5 -95 -22 -110c-12 -11 -29 -14 -54 -14h-76c-25 0 -42 3 -54 14c-17 15 -22 39 -22 76c0 25 1 45 15 66c11 18 43 45 71 67l-52 168h-267l-61 -197h-111l222 676c7 23 13 27 40 27h97c25 0 32 -4 40 -27l222 -676h-96c-13 -14 -32 -35 -36 -46
c-4 -10 -5 -22 -5 -39c0 -23 1 -31 4 -34s6 -4 14 -4h37c9 0 11 1 14 4s5 9 5 49zM317 605l-97 -314h208l-96 314h-15z" />
    <glyph glyph-name="aogonek" unicode="&#x105;" horiz-adv-x="574" 
d="M75 376c1 82 12 113 33 134s43 30 91 30h166c61 0 87 -11 105 -29c25 -25 31 -51 31 -147v-364h-62c-12 -12 -37 -39 -42 -52c-4 -10 -5 -19 -5 -36c0 -23 1 -28 4 -31s6 -4 14 -4h37c9 0 11 1 14 4s5 9 5 49h75c0 -75 -5 -95 -22 -110c-12 -11 -29 -14 -54 -14h-76
c-25 0 -42 3 -54 14c-17 15 -22 36 -22 73c0 25 1 42 15 63c13 21 44 46 70 66v44c-65 -54 -84 -67 -132 -67h-84c-49 0 -75 6 -97 28c-19 19 -32 50 -32 118c0 64 12 106 33 127c24 24 48 39 179 39c53 0 101 -5 133 -15v60c0 63 -4 79 -12 87c-7 7 -18 9 -47 9h-108
c-25 0 -36 -2 -43 -9c-8 -8 -10 -26 -12 -67h-101zM284 88c40 0 64 6 114 33v112h-140c-68 0 -81 -5 -90 -14c-10 -10 -13 -22 -13 -57c0 -40 2 -58 10 -66c7 -7 18 -8 42 -8h77z" />
    <glyph glyph-name="Aring" unicode="&#xc5;" horiz-adv-x="658" 
d="M519 0l-61 197h-267l-61 -197h-111l217 662c-5 3 -10 6 -14 10c-20 20 -26 41 -26 80s6 60 26 80c13 13 35 20 67 20h82c32 0 54 -7 67 -20c20 -20 26 -41 26 -80s-6 -60 -26 -80c-4 -4 -9 -8 -15 -11l217 -661h-121zM317 605l-97 -314h208l-96 314h-15zM361 796h-62
c-17 0 -21 -1 -26 -6s-8 -14 -8 -38s3 -33 8 -38s9 -6 26 -6h62c17 0 21 1 26 6s8 14 8 38s-3 33 -8 38s-9 6 -26 6z" />
    <glyph glyph-name="aring" unicode="&#xe5;" horiz-adv-x="574" 
d="M75 376c1 82 12 113 33 134s43 30 91 30h166c61 0 87 -11 105 -29c25 -25 31 -51 31 -147v-364h-103v66c-65 -54 -84 -67 -132 -67h-84c-49 0 -75 6 -97 28c-19 19 -32 50 -32 118c0 64 12 106 33 127c24 24 48 39 179 39c53 0 101 -5 133 -15v60c0 63 -4 79 -12 87
c-7 7 -18 9 -47 9h-108c-25 0 -36 -2 -43 -9c-8 -8 -10 -26 -12 -67h-101zM335 610h-82c-32 0 -54 7 -67 20c-20 20 -26 41 -26 80s6 60 26 80c13 13 35 20 67 20h82c32 0 54 -7 67 -20c20 -20 26 -41 26 -80s-6 -60 -26 -80c-13 -13 -35 -20 -67 -20zM284 88
c40 0 64 6 114 33v112h-140c-68 0 -81 -5 -90 -14c-10 -10 -13 -22 -13 -57c0 -40 2 -58 10 -66c7 -7 18 -8 42 -8h77zM325 754h-62c-17 0 -21 -1 -26 -6s-8 -14 -8 -38s3 -33 8 -38s9 -6 26 -6h62c17 0 21 1 26 6s8 14 8 38s-3 33 -8 38s-9 6 -26 6z" />
    <glyph glyph-name="aring.alt" horiz-adv-x="574" 
d="M75 376c1 82 12 113 33 134c15 15 31 25 58 28c-5 14 -6 29 -6 51c0 39 6 60 26 80c13 13 35 20 67 20h82c32 0 54 -7 67 -20c20 -20 26 -41 26 -80c0 -23 -2 -40 -8 -54c24 -5 38 -13 50 -24c25 -25 31 -51 31 -147v-364h-103v66c-65 -54 -84 -67 -132 -67h-84
c-49 0 -75 6 -97 28c-19 19 -32 50 -32 118c0 64 12 106 33 127c24 24 48 39 179 39c53 0 101 -5 133 -15v60c0 63 -4 79 -12 87c-7 7 -18 9 -47 9h-108c-25 0 -36 -2 -43 -9c-8 -8 -10 -26 -12 -67h-101zM284 88c40 0 64 6 114 33v112h-140c-68 0 -81 -5 -90 -14
c-10 -10 -13 -22 -13 -57c0 -40 2 -58 10 -66c7 -7 18 -8 42 -8h77zM325 633h-62c-17 0 -21 -1 -26 -6s-8 -14 -8 -38s3 -33 8 -38s9 -6 26 -6h62c17 0 21 1 26 6s8 14 8 38s-3 33 -8 38s-9 6 -26 6z" />
    <glyph glyph-name="Aringacute" unicode="&#x1fa;" horiz-adv-x="658" 
d="M130 0h-111l217 662c-5 3 -10 6 -14 10c-20 20 -26 41 -26 80s6 60 26 80c13 13 35 20 67 20h82c32 0 54 -7 67 -20c20 -20 26 -41 26 -80s-6 -60 -26 -80c-4 -4 -9 -8 -15 -11l217 -661h-121l-61 197h-267zM317 605l-97 -314h208l-96 314h-15zM270 900v5l85 107h166v-5
l-150 -107h-101zM361 796h-62c-17 0 -21 -1 -26 -6s-8 -14 -8 -38s3 -33 8 -38s9 -6 26 -6h62c17 0 21 1 26 6s8 14 8 38s-3 33 -8 38s-9 6 -26 6z" />
    <glyph glyph-name="aringacute" unicode="&#x1fb;" horiz-adv-x="574" 
d="M75 376c1 82 12 113 33 134s43 30 91 30h166c61 0 87 -11 105 -29c25 -25 31 -51 31 -147v-364h-103v66c-65 -54 -84 -67 -132 -67h-84c-49 0 -75 6 -97 28c-19 19 -32 50 -32 118c0 64 12 106 33 127c24 24 48 39 179 39c53 0 101 -5 133 -15v60c0 63 -4 79 -12 87
c-7 7 -18 9 -47 9h-108c-25 0 -36 -2 -43 -9c-8 -8 -10 -26 -12 -67h-101zM335 610h-82c-32 0 -54 7 -67 20c-20 20 -26 41 -26 80s6 60 26 80c13 13 35 20 67 20h82c32 0 54 -7 67 -20c20 -20 26 -41 26 -80s-6 -60 -26 -80c-13 -13 -35 -20 -67 -20zM284 88
c40 0 64 6 114 33v112h-140c-68 0 -81 -5 -90 -14c-10 -10 -13 -22 -13 -57c0 -40 2 -58 10 -66c7 -7 18 -8 42 -8h77zM234 868v5l85 107h166v-5l-150 -107h-101zM325 754h-62c-17 0 -21 -1 -26 -6s-8 -14 -8 -38s3 -33 8 -38s9 -6 26 -6h62c17 0 21 1 26 6s8 14 8 38
s-3 33 -8 38s-9 6 -26 6z" />
    <glyph glyph-name="aringacute.alt" horiz-adv-x="574" 
d="M75 376c1 82 12 113 33 134c15 15 31 25 58 28c-5 14 -6 29 -6 51c0 39 6 60 26 80c13 13 35 20 67 20h82c32 0 54 -7 67 -20c20 -20 26 -41 26 -80c0 -23 -2 -40 -8 -54c24 -5 38 -13 50 -24c25 -25 31 -51 31 -147v-364h-103v66c-65 -54 -84 -67 -132 -67h-84
c-49 0 -75 6 -97 28c-19 19 -32 50 -32 118c0 64 12 106 33 127c24 24 48 39 179 39c53 0 101 -5 133 -15v60c0 63 -4 79 -12 87c-7 7 -18 9 -47 9h-108c-25 0 -36 -2 -43 -9c-8 -8 -10 -26 -12 -67h-101zM284 88c40 0 64 6 114 33v112h-140c-68 0 -81 -5 -90 -14
c-10 -10 -13 -22 -13 -57c0 -40 2 -58 10 -66c7 -7 18 -8 42 -8h77zM234 747v5l85 107h166v-5l-150 -107h-101zM325 633h-62c-17 0 -21 -1 -26 -6s-8 -14 -8 -38s3 -33 8 -38s9 -6 26 -6h62c17 0 21 1 26 6s8 14 8 38s-3 33 -8 38s-9 6 -26 6z" />
    <glyph glyph-name="Atilde" unicode="&#xc3;" horiz-adv-x="658" 
d="M519 0l-61 197h-267l-61 -197h-111l222 676c7 23 13 27 40 27h97c25 0 32 -4 40 -27l222 -676h-121zM317 605l-97 -314h208l-96 314h-15zM176 758v63c0 24 5 41 14 50c7 7 17 13 38 13h15c24 0 40 -4 82 -20l70 -26l28 46h53v-63c0 -24 -5 -41 -14 -50
c-7 -7 -17 -13 -38 -13h-15c-24 0 -40 4 -82 20l-70 26l-28 -46h-53z" />
    <glyph glyph-name="atilde" unicode="&#xe3;" horiz-adv-x="574" 
d="M75 376c1 82 12 113 33 134s43 30 91 30h166c61 0 87 -11 105 -29c25 -25 31 -51 31 -147v-364h-103v66c-65 -54 -84 -67 -132 -67h-84c-49 0 -75 6 -97 28c-19 19 -32 50 -32 118c0 64 12 106 33 127c24 24 48 39 179 39c53 0 101 -5 133 -15v60c0 63 -4 79 -12 87
c-7 7 -18 9 -47 9h-108c-25 0 -36 -2 -43 -9c-8 -8 -10 -26 -12 -67h-101zM284 88c40 0 64 6 114 33v112h-140c-68 0 -81 -5 -90 -14c-10 -10 -13 -22 -13 -57c0 -40 2 -58 10 -66c7 -7 18 -8 42 -8h77zM144 608v63c0 24 5 41 14 50c7 7 17 13 38 13h15c24 0 40 -4 82 -20
l70 -26l28 46h53v-63c0 -24 -5 -41 -14 -50c-7 -7 -17 -13 -38 -13h-15c-24 0 -40 4 -82 20l-70 26l-28 -46h-53z" />
    <glyph glyph-name="AE" unicode="&#xc6;" horiz-adv-x="975" 
d="M448 0v217h-218l-116 -217h-114l363 671c12 21 19 29 46 29h517v-96h-366v-193h303v-96h-303v-219h366v-96h-478zM438 610l-159 -299h169v299h-10z" />
    <glyph glyph-name="ae" unicode="&#xe6;" horiz-adv-x="906" 
d="M265 312c53 0 101 -5 133 -15v59c0 63 -4 79 -12 87c-7 7 -18 9 -47 9h-106c-25 0 -36 -2 -43 -9c-8 -8 -10 -26 -12 -67h-104c2 86 11 113 32 134s44 30 90 30h148c61 0 87 -11 105 -29c2 -2 4 -4 5 -6l4 4c22 22 54 31 107 31h130c53 0 87 -10 107 -30
c35 -35 45 -77 45 -235v-29c0 -8 -3 -12 -12 -12h-337c1 -104 7 -125 15 -133s15 -10 46 -10h140c23 0 30 4 36 10c7 7 9 19 11 67h101c-2 -84 -10 -114 -37 -141c-17 -17 -40 -27 -88 -27h-172c-53 0 -85 9 -107 31c-13 13 -23 27 -30 48c-78 -64 -96 -80 -147 -80h-84
c-49 0 -75 6 -97 28c-19 19 -32 51 -32 119c0 64 12 106 33 127c24 24 48 39 179 39zM284 88c41 0 66 7 120 37c-4 27 -6 62 -6 109h-140c-68 0 -81 -5 -90 -14c-10 -10 -13 -22 -13 -57c0 -40 2 -59 10 -67c7 -7 18 -8 42 -8h77zM512 438c-9 -9 -13 -27 -14 -121h246
c0 91 -6 113 -15 122c-6 6 -15 10 -46 10h-124c-31 0 -39 -3 -47 -11z" />
    <glyph glyph-name="AEacute" unicode="&#x1fc;" horiz-adv-x="975" 
d="M448 0v217h-218l-116 -217h-114l363 671c12 21 19 29 46 29h517v-96h-366v-193h303v-96h-303v-219h366v-96h-478zM438 610l-159 -299h169v299h-10zM493 758v5l85 107h166v-5l-150 -107h-101z" />
    <glyph glyph-name="aeacute" unicode="&#x1fd;" horiz-adv-x="906" 
d="M265 312c53 0 101 -5 133 -15v59c0 63 -4 79 -12 87c-7 7 -18 9 -47 9h-106c-25 0 -36 -2 -43 -9c-8 -8 -10 -26 -12 -67h-104c2 86 11 113 32 134s44 30 90 30h148c61 0 87 -11 105 -29c2 -2 4 -4 5 -6l4 4c22 22 54 31 107 31h130c53 0 87 -10 107 -30
c35 -35 45 -77 45 -235v-29c0 -8 -3 -12 -12 -12h-337c1 -104 7 -125 15 -133s15 -10 46 -10h140c23 0 30 4 36 10c7 7 9 19 11 67h101c-2 -84 -10 -114 -37 -141c-17 -17 -40 -27 -88 -27h-172c-53 0 -85 9 -107 31c-13 13 -23 27 -30 48c-78 -64 -96 -80 -147 -80h-84
c-49 0 -75 6 -97 28c-19 19 -32 51 -32 119c0 64 12 106 33 127c24 24 48 39 179 39zM284 88c41 0 66 7 120 37c-4 27 -6 62 -6 109h-140c-68 0 -81 -5 -90 -14c-10 -10 -13 -22 -13 -57c0 -40 2 -59 10 -67c7 -7 18 -8 42 -8h77zM512 438c-9 -9 -13 -27 -14 -121h246
c0 91 -6 113 -15 122c-6 6 -15 10 -46 10h-124c-31 0 -39 -3 -47 -11zM391 608v5l85 107h166v-5l-150 -107h-101z" />
    <glyph glyph-name="Cacute" unicode="&#x106;" horiz-adv-x="664" 
d="M612 241c-5 -139 -21 -178 -60 -213c-23 -21 -48 -28 -114 -28h-194c-66 0 -91 7 -114 28c-39 35 -63 86 -63 322s24 287 63 322c23 21 48 28 114 28h194c66 0 91 -7 114 -28c39 -35 57 -81 59 -202h-112c-3 88 -12 113 -23 123c-8 7 -16 11 -50 11h-170
c-34 0 -42 -4 -50 -11c-11 -10 -25 -41 -25 -243s14 -233 25 -243c8 -7 16 -11 50 -11h170c34 -1 42 4 50 11c11 10 20 30 23 134h113zM276 758v5l85 107h166v-5l-150 -107h-101z" />
    <glyph glyph-name="cacute" unicode="&#x107;" horiz-adv-x="555" 
d="M403 197h101c0 -112 -10 -143 -37 -170c-16 -16 -41 -27 -88 -27h-165c-53 0 -85 9 -107 31c-35 35 -45 77 -45 239s10 204 45 239c22 22 54 31 107 31h164c49 0 71 -10 88 -27c26 -26 36 -62 36 -163h-101c-2 70 -6 82 -12 88s-14 9 -37 9h-125c-31 0 -39 -3 -46 -10
c-10 -10 -15 -29 -15 -167s5 -157 15 -167c7 -7 15 -10 46 -10h126c22 0 32 2 39 9s11 27 11 95zM224 608v5l85 107h166v-5l-150 -107h-101z" />
    <glyph glyph-name="Ccaron" unicode="&#x10c;" horiz-adv-x="664" 
d="M612 241c-5 -139 -21 -178 -60 -213c-23 -21 -48 -28 -114 -28h-194c-66 0 -91 7 -114 28c-39 35 -63 86 -63 322s24 287 63 322c23 21 48 28 114 28h194c66 0 91 -7 114 -28c39 -35 57 -81 59 -202h-112c-3 88 -12 113 -23 123c-8 7 -16 11 -50 11h-170
c-34 0 -42 -4 -50 -11c-11 -10 -25 -41 -25 -243s14 -233 25 -243c8 -7 16 -11 50 -11h170c34 -1 42 4 50 11c11 10 20 30 23 134h113zM277 758l-100 117v5h87l74 -52l74 52h85v-5l-100 -117h-120z" />
    <glyph glyph-name="ccaron" unicode="&#x10d;" horiz-adv-x="555" 
d="M403 197h101c0 -112 -10 -143 -37 -170c-16 -16 -41 -27 -88 -27h-165c-53 0 -85 9 -107 31c-35 35 -45 77 -45 239s10 204 45 239c22 22 54 31 107 31h164c49 0 71 -10 88 -27c26 -26 36 -62 36 -163h-101c-2 70 -6 82 -12 88s-14 9 -37 9h-125c-31 0 -39 -3 -46 -10
c-10 -10 -15 -29 -15 -167s5 -157 15 -167c7 -7 15 -10 46 -10h126c22 0 32 2 39 9s11 27 11 95zM225 608l-100 117v5h87l74 -52l74 52h85v-5l-100 -117h-120z" />
    <glyph glyph-name="Ccedilla" unicode="&#xc7;" horiz-adv-x="657" 
d="M612 241c-5 -139 -21 -178 -60 -213c-23 -21 -48 -28 -114 -28h-194c-66 0 -91 7 -114 28c-39 35 -63 86 -63 322s24 287 63 322c23 21 48 28 114 28h194c66 0 91 -7 114 -28c39 -35 57 -81 59 -202h-112c-3 88 -12 113 -23 123c-8 7 -16 11 -50 11h-170
c-34 0 -42 -4 -50 -11c-11 -10 -25 -41 -25 -243s14 -233 25 -243c8 -7 16 -11 50 -11h170c34 -1 42 4 50 11c11 10 20 30 23 134h113zM356 -28c32 0 51 -4 62 -15c12 -12 19 -31 19 -68s-7 -55 -19 -67s-33 -16 -65 -16h-76l-57 40v21h118c12 0 17 1 20 4s4 11 4 19
s-1 16 -4 19s-8 4 -20 4h-44v59h62z" />
    <glyph glyph-name="ccedilla" unicode="&#xe7;" horiz-adv-x="555" 
d="M403 197h101c0 -112 -10 -143 -37 -170c-16 -16 -41 -27 -88 -27h-165c-53 0 -85 9 -107 31c-35 35 -45 77 -45 239s10 204 45 239c22 22 54 31 107 31h164c49 0 71 -10 88 -27c26 -26 36 -62 36 -163h-101c-2 70 -6 82 -12 88s-14 9 -37 9h-125c-31 0 -39 -3 -46 -10
c-10 -10 -15 -29 -15 -167s5 -157 15 -167c7 -7 15 -10 46 -10h126c22 0 32 2 39 9s11 27 11 95zM293 -28c32 0 51 -4 62 -15c12 -12 19 -31 19 -68s-7 -55 -19 -67s-33 -16 -65 -16h-76l-57 40v21h118c12 0 17 1 20 4s4 11 4 19s-1 16 -4 19s-8 4 -20 4h-44v59h62z" />
    <glyph glyph-name="Cdotaccent" unicode="&#x10a;" horiz-adv-x="664" 
d="M612 241c-5 -139 -21 -178 -60 -213c-23 -21 -48 -28 -114 -28h-194c-66 0 -91 7 -114 28c-39 35 -63 86 -63 322s24 287 63 322c23 21 48 28 114 28h194c66 0 91 -7 114 -28c39 -35 57 -81 59 -202h-112c-3 88 -12 113 -23 123c-8 7 -16 11 -50 11h-170
c-34 0 -42 -4 -50 -11c-11 -10 -25 -41 -25 -243s14 -233 25 -243c8 -7 16 -11 50 -11h170c34 -1 42 4 50 11c11 10 20 30 23 134h113zM279 768v112h118v-112h-118z" />
    <glyph glyph-name="cdotaccent" unicode="&#x10b;" horiz-adv-x="555" 
d="M403 197h101c0 -112 -10 -143 -37 -170c-16 -16 -41 -27 -88 -27h-165c-53 0 -85 9 -107 31c-35 35 -45 77 -45 239s10 204 45 239c22 22 54 31 107 31h164c49 0 71 -10 88 -27c26 -26 36 -62 36 -163h-101c-2 70 -6 82 -12 88s-14 9 -37 9h-125c-31 0 -39 -3 -46 -10
c-10 -10 -15 -29 -15 -167s5 -157 15 -167c7 -7 15 -10 46 -10h126c22 0 32 2 39 9s11 27 11 95zM227 618v112h118v-112h-118z" />
    <glyph glyph-name="Dcaron" unicode="&#x10e;" horiz-adv-x="682" 
d="M82 700h304c85 0 131 -14 170 -49c46 -42 68 -129 68 -301s-22 -259 -68 -301c-39 -35 -85 -49 -170 -49h-304v700zM510 349c0 161 -12 208 -39 233c-22 20 -42 22 -85 22h-192v-508h192c43 0 65 3 85 22c27 25 39 73 39 231zM282 758l-100 117v5h87l74 -52l74 52h85v-5
l-100 -117h-120z" />
    <glyph glyph-name="dcaron" unicode="&#x10f;" horiz-adv-x="603" 
d="M527 0h-104v65c-68 -55 -91 -66 -135 -66h-73c-58 0 -87 10 -110 33c-29 29 -43 70 -43 238s14 209 43 238c23 23 52 33 110 33h73c44 0 66 -10 135 -66v245h104v-720zM318 92c33 0 62 9 105 32v294c-41 21 -68 30 -101 30h-82c-33 0 -46 -4 -55 -13
c-15 -15 -19 -44 -19 -165s4 -150 19 -165c9 -9 22 -13 55 -13h78zM616 552l-39 16l24 84c2 9 3 15 3 23s-1 14 -3 23l-23 82v20h114v-74c0 -54 -7 -74 -34 -113z" />
    <glyph glyph-name="Dcroat" unicode="&#x110;" horiz-adv-x="692" 
d="M92 700h304c85 0 131 -14 170 -49c46 -42 68 -129 68 -301s-22 -259 -68 -301c-39 -35 -85 -49 -170 -49h-304v307h-94v92h94v301zM520 349c0 161 -12 208 -39 233c-22 20 -42 22 -85 22h-192v-205h154v-92h-154v-211h192c43 0 65 3 85 22c27 25 39 73 39 231z" />
    <glyph glyph-name="dcroat" unicode="&#x111;" horiz-adv-x="603" 
d="M527 0h-104v65c-68 -55 -91 -66 -135 -66h-73c-58 0 -87 10 -110 33c-29 29 -43 70 -43 238s14 209 43 238c23 23 52 33 110 33h73c44 0 66 -10 135 -66v99h-140v82h140v64h104v-64h81v-82h-81v-574zM185 435c-15 -15 -19 -44 -19 -165s4 -150 19 -165
c9 -9 22 -13 55 -13h78c33 0 62 9 105 32v294c-41 21 -68 30 -101 30h-82c-33 0 -46 -4 -55 -13z" />
    <glyph glyph-name="Eacute" unicode="&#xc9;" horiz-adv-x="609" 
d="M560 96v-96h-478v700h478v-96h-366v-193h303v-96h-303v-219h366zM260 758v5l85 107h166v-5l-150 -107h-101z" />
    <glyph glyph-name="eacute" unicode="&#xe9;" horiz-adv-x="573" 
d="M502 236h-337c1 -106 7 -127 15 -135s15 -10 46 -10h140c23 0 30 4 36 10c7 7 9 19 11 67h101c-2 -84 -10 -114 -37 -141c-17 -17 -40 -27 -88 -27h-175c-53 0 -85 9 -107 31c-35 35 -45 77 -45 239s10 204 45 239c22 22 54 31 107 31h148c53 0 87 -10 107 -30
c35 -35 45 -77 45 -235v-27c0 -8 -3 -12 -12 -12zM179 438c-9 -9 -13 -27 -14 -119h246c0 91 -6 111 -15 120c-6 6 -15 10 -46 10h-124c-31 0 -39 -3 -47 -11zM229 608v5l85 107h166v-5l-150 -107h-101z" />
    <glyph glyph-name="Ebreve" unicode="&#x114;" horiz-adv-x="609" 
d="M560 96v-96h-478v700h478v-96h-366v-193h303v-96h-303v-219h366zM322 830c47 0 68 19 76 50h76c-3 -79 -57 -125 -152 -125s-149 46 -152 125h76c8 -31 29 -50 76 -50z" />
    <glyph glyph-name="ebreve" unicode="&#x115;" horiz-adv-x="573" 
d="M502 236h-337c1 -106 7 -127 15 -135s15 -10 46 -10h140c23 0 30 4 36 10c7 7 9 19 11 67h101c-2 -84 -10 -114 -37 -141c-17 -17 -40 -27 -88 -27h-175c-53 0 -85 9 -107 31c-35 35 -45 77 -45 239s10 204 45 239c22 22 54 31 107 31h148c53 0 87 -10 107 -30
c35 -35 45 -77 45 -235v-27c0 -8 -3 -12 -12 -12zM179 438c-9 -9 -13 -27 -14 -119h246c0 91 -6 111 -15 120c-6 6 -15 10 -46 10h-124c-31 0 -39 -3 -47 -11zM291 680c47 0 68 19 76 50h76c-3 -79 -57 -125 -152 -125s-149 46 -152 125h76c8 -31 29 -50 76 -50z" />
    <glyph glyph-name="Ecaron" unicode="&#x11a;" horiz-adv-x="609" 
d="M560 96v-96h-478v700h478v-96h-366v-193h303v-96h-303v-219h366zM261 758l-100 117v5h87l74 -52l74 52h85v-5l-100 -117h-120z" />
    <glyph glyph-name="ecaron" unicode="&#x11b;" horiz-adv-x="573" 
d="M502 236h-337c1 -106 7 -127 15 -135s15 -10 46 -10h140c23 0 30 4 36 10c7 7 9 19 11 67h101c-2 -84 -10 -114 -37 -141c-17 -17 -40 -27 -88 -27h-175c-53 0 -85 9 -107 31c-35 35 -45 77 -45 239s10 204 45 239c22 22 54 31 107 31h148c53 0 87 -10 107 -30
c35 -35 45 -77 45 -235v-27c0 -8 -3 -12 -12 -12zM179 438c-9 -9 -13 -27 -14 -119h246c0 91 -6 111 -15 120c-6 6 -15 10 -46 10h-124c-31 0 -39 -3 -47 -11zM230 608l-100 117v5h87l74 -52l74 52h85v-5l-100 -117h-120z" />
    <glyph glyph-name="Ecircumflex" unicode="&#xca;" horiz-adv-x="609" 
d="M560 96v-96h-478v700h478v-96h-366v-193h303v-96h-303v-219h366zM395 758l-74 52l-74 -52h-85v5l100 117h120l100 -117v-5h-87z" />
    <glyph glyph-name="ecircumflex" unicode="&#xea;" horiz-adv-x="573" 
d="M502 236h-337c1 -106 7 -127 15 -135s15 -10 46 -10h140c23 0 30 4 36 10c7 7 9 19 11 67h101c-2 -84 -10 -114 -37 -141c-17 -17 -40 -27 -88 -27h-175c-53 0 -85 9 -107 31c-35 35 -45 77 -45 239s10 204 45 239c22 22 54 31 107 31h148c53 0 87 -10 107 -30
c35 -35 45 -77 45 -235v-27c0 -8 -3 -12 -12 -12zM179 438c-9 -9 -13 -27 -14 -119h246c0 91 -6 111 -15 120c-6 6 -15 10 -46 10h-124c-31 0 -39 -3 -47 -11zM364 608l-74 52l-74 -52h-85v5l100 117h120l100 -117v-5h-87z" />
    <glyph glyph-name="Edieresis" unicode="&#xcb;" horiz-adv-x="609" 
d="M560 96v-96h-478v700h478v-96h-366v-193h303v-96h-303v-219h366zM174 760v110h111v-110h-111zM359 760v110h111v-110h-111z" />
    <glyph glyph-name="edieresis" unicode="&#xeb;" horiz-adv-x="573" 
d="M502 236h-337c1 -106 7 -127 15 -135s15 -10 46 -10h140c23 0 30 4 36 10c7 7 9 19 11 67h101c-2 -84 -10 -114 -37 -141c-17 -17 -40 -27 -88 -27h-175c-53 0 -85 9 -107 31c-35 35 -45 77 -45 239s10 204 45 239c22 22 54 31 107 31h148c53 0 87 -10 107 -30
c35 -35 45 -77 45 -235v-27c0 -8 -3 -12 -12 -12zM179 438c-9 -9 -13 -27 -14 -119h246c0 91 -6 111 -15 120c-6 6 -15 10 -46 10h-124c-31 0 -39 -3 -47 -11zM143 610v110h111v-110h-111zM328 610v110h111v-110h-111z" />
    <glyph glyph-name="Edotaccent" unicode="&#x116;" horiz-adv-x="609" 
d="M560 96v-96h-478v700h478v-96h-366v-193h303v-96h-303v-219h366zM263 768v112h118v-112h-118z" />
    <glyph glyph-name="edotaccent" unicode="&#x117;" horiz-adv-x="573" 
d="M502 236h-337c1 -106 7 -127 15 -135s15 -10 46 -10h140c23 0 30 4 36 10c7 7 9 19 11 67h101c-2 -84 -10 -114 -37 -141c-17 -17 -40 -27 -88 -27h-175c-53 0 -85 9 -107 31c-35 35 -45 77 -45 239s10 204 45 239c22 22 54 31 107 31h148c53 0 87 -10 107 -30
c35 -35 45 -77 45 -235v-27c0 -8 -3 -12 -12 -12zM179 438c-9 -9 -13 -27 -14 -119h246c0 91 -6 111 -15 120c-6 6 -15 10 -46 10h-124c-31 0 -39 -3 -47 -11zM232 618v112h118v-112h-118z" />
    <glyph glyph-name="Egrave" unicode="&#xc8;" horiz-adv-x="609" 
d="M560 96v-96h-478v700h478v-96h-366v-193h303v-96h-303v-219h366zM384 758h-101l-150 107v5h166l85 -107v-5z" />
    <glyph glyph-name="egrave" unicode="&#xe8;" horiz-adv-x="573" 
d="M502 236h-337c1 -106 7 -127 15 -135s15 -10 46 -10h140c23 0 30 4 36 10c7 7 9 19 11 67h101c-2 -84 -10 -114 -37 -141c-17 -17 -40 -27 -88 -27h-175c-53 0 -85 9 -107 31c-35 35 -45 77 -45 239s10 204 45 239c22 22 54 31 107 31h148c53 0 87 -10 107 -30
c35 -35 45 -77 45 -235v-27c0 -8 -3 -12 -12 -12zM179 438c-9 -9 -13 -27 -14 -119h246c0 91 -6 111 -15 120c-6 6 -15 10 -46 10h-124c-31 0 -39 -3 -47 -11zM353 608h-101l-150 107v5h166l85 -107v-5z" />
    <glyph glyph-name="Emacron" unicode="&#x112;" horiz-adv-x="609" 
d="M560 96v-96h-478v700h478v-96h-366v-193h303v-96h-303v-219h366zM171 760v85h302v-85h-302z" />
    <glyph glyph-name="emacron" unicode="&#x113;" horiz-adv-x="573" 
d="M502 236h-337c1 -106 7 -127 15 -135s15 -10 46 -10h140c23 0 30 4 36 10c7 7 9 19 11 67h101c-2 -84 -10 -114 -37 -141c-17 -17 -40 -27 -88 -27h-175c-53 0 -85 9 -107 31c-35 35 -45 77 -45 239s10 204 45 239c22 22 54 31 107 31h148c53 0 87 -10 107 -30
c35 -35 45 -77 45 -235v-27c0 -8 -3 -12 -12 -12zM179 438c-9 -9 -13 -27 -14 -119h246c0 91 -6 111 -15 120c-6 6 -15 10 -46 10h-124c-31 0 -39 -3 -47 -11zM140 610v85h302v-85h-302z" />
    <glyph glyph-name="Eogonek" unicode="&#x118;" horiz-adv-x="609" 
d="M492 -70h75c0 -75 -5 -95 -22 -110c-12 -11 -29 -14 -54 -14h-76c-25 0 -42 3 -54 14c-17 15 -22 35 -22 77c0 30 1 45 15 67c6 11 19 24 33 36h-305v700h478v-96h-366v-193h303v-96h-303v-219h366v-96h-108c-10 -10 -24 -25 -28 -35c-5 -11 -6 -19 -6 -45
c0 -31 1 -36 4 -39s6 -4 14 -4h37c9 0 11 1 14 4s5 9 5 49z" />
    <glyph glyph-name="eogonek" unicode="&#x119;" horiz-adv-x="573" 
d="M431 -70h75c0 -75 -5 -95 -22 -110c-12 -11 -29 -14 -54 -14h-76c-25 0 -42 3 -54 14c-17 15 -22 35 -22 77c0 30 1 45 15 67c6 11 19 24 33 36h-112c-53 0 -85 9 -107 31c-35 35 -45 77 -45 239s10 204 45 239c22 22 54 31 107 31h148c53 0 87 -10 107 -30
c35 -35 45 -77 45 -235v-27c0 -8 -3 -12 -12 -12h-337c1 -106 7 -127 15 -135s15 -10 46 -10h140c23 0 30 4 36 10c7 7 9 19 11 67h101c-2 -84 -10 -114 -37 -141c-17 -17 -40 -27 -86 -27c-10 -10 -24 -25 -28 -35c-5 -11 -6 -19 -6 -45c0 -31 1 -36 4 -39s6 -4 14 -4h37
c9 0 11 1 14 4s5 9 5 49zM179 438c-9 -9 -13 -27 -14 -119h246c0 91 -6 111 -15 120c-6 6 -15 10 -46 10h-124c-31 0 -39 -3 -47 -11z" />
    <glyph glyph-name="Eth" unicode="&#xd0;" horiz-adv-x="692" 
d="M92 700h304c85 0 131 -14 170 -49c46 -42 68 -129 68 -301s-22 -259 -68 -301c-39 -35 -85 -49 -170 -49h-304v307h-94v92h94v301zM520 349c0 161 -12 208 -39 233c-22 20 -42 22 -85 22h-192v-205h154v-92h-154v-211h192c43 0 65 3 85 22c27 25 39 73 39 231z" />
    <glyph glyph-name="eth" unicode="&#xf0;" horiz-adv-x="597" 
d="M221 621l95 32l-51 67h84l40 -41l136 47v-79l-80 -28c43 -48 61 -76 70 -102c11 -30 15 -86 15 -237c0 -165 -5 -209 -45 -249c-22 -22 -54 -31 -107 -31h-159c-53 0 -85 9 -107 31c-35 35 -45 78 -45 214s10 179 45 214c22 22 54 31 107 31h72c44 0 66 -10 133 -65
c-1 47 -5 62 -11 84c-5 15 -13 32 -50 82l-142 -49v79zM426 280v86c-42 22 -72 32 -105 32h-89c-31 0 -39 -3 -46 -10c-10 -10 -15 -33 -15 -143s5 -132 15 -142c7 -7 15 -10 46 -10h133c31 0 39 3 46 10c13 13 15 41 15 177z" />
    <glyph glyph-name="Gbreve" unicode="&#x11e;" horiz-adv-x="678" 
d="M244 700h197c66 0 91 -7 114 -28c39 -35 53 -68 55 -192h-109c-2 83 -11 103 -22 113c-8 7 -16 11 -50 11h-173c-34 0 -42 -4 -50 -11c-11 -10 -25 -41 -25 -243s14 -233 25 -243c8 -7 16 -11 50 -11h173c34 -1 42 4 50 11c11 10 24 45 24 129v35h-163v96h276v-89
c0 -154 -22 -215 -61 -250c-23 -21 -48 -28 -114 -28h-197c-66 0 -91 7 -114 28c-39 35 -63 86 -63 322s24 287 63 322c23 21 48 28 114 28zM339 830c47 0 68 19 76 50h76c-3 -79 -57 -125 -152 -125s-149 46 -152 125h76c8 -31 29 -50 76 -50z" />
    <glyph glyph-name="gbreve" unicode="&#x11f;" horiz-adv-x="603" 
d="M388 -150h-193c-46 0 -70 10 -88 28c-20 20 -29 48 -29 106h104c1 -24 4 -33 11 -40c6 -6 14 -8 41 -8h131c29 0 40 2 47 9c8 8 11 17 11 67v112c-69 -55 -91 -65 -135 -65h-72c-58 0 -87 10 -110 33c-29 29 -43 61 -43 208s14 179 43 208c23 23 52 33 110 33h72
c44 0 66 -10 135 -66v65h104v-514c0 -96 -9 -122 -34 -147c-18 -18 -44 -29 -105 -29zM322 151c32 0 61 9 101 30v236c-42 22 -72 32 -105 32h-77c-33 0 -46 -4 -55 -13c-15 -15 -19 -29 -19 -136s4 -121 19 -136c9 -9 22 -13 55 -13h81zM299 680c47 0 68 19 76 50h76
c-3 -79 -57 -125 -152 -125s-149 46 -152 125h76c8 -31 29 -50 76 -50z" />
    <glyph glyph-name="Gcommaaccent" unicode="&#x122;" horiz-adv-x="678" 
d="M244 700h197c66 0 91 -7 114 -28c39 -35 53 -68 55 -192h-109c-2 83 -11 103 -22 113c-8 7 -16 11 -50 11h-173c-34 0 -42 -4 -50 -11c-11 -10 -25 -41 -25 -243s14 -233 25 -243c8 -7 16 -11 50 -11h173c34 -1 42 4 50 11c11 10 24 45 24 129v35h-163v96h276v-89
c0 -154 -22 -215 -61 -250c-23 -21 -48 -28 -114 -28h-197c-66 0 -91 7 -114 28c-39 35 -63 86 -63 322s24 287 63 322c23 21 48 28 114 28zM284 -70h112v-114c0 -27 -8 -43 -26 -62l-77 -79l-32 27l58 79c6 9 7 14 7 23v6h-42v120z" />
    <glyph glyph-name="gcommaaccent" unicode="&#x123;" horiz-adv-x="603" 
d="M388 -150h-193c-46 0 -70 10 -88 28c-20 20 -29 48 -29 106h104c1 -24 4 -33 11 -40c6 -6 14 -8 41 -8h131c29 0 40 2 47 9c8 8 11 17 11 67v112c-69 -55 -91 -65 -135 -65h-72c-58 0 -87 10 -110 33c-29 29 -43 61 -43 208s14 179 43 208c23 23 52 33 110 33h72
c44 0 66 -10 135 -66v65h104v-514c0 -96 -9 -122 -34 -147c-18 -18 -44 -29 -105 -29zM322 151c32 0 61 9 101 30v236c-42 22 -72 32 -105 32h-77c-33 0 -46 -4 -55 -13c-15 -15 -19 -29 -19 -136s4 -121 19 -136c9 -9 22 -13 55 -13h81zM355 614h-112v114c0 27 8 43 26 62
l77 79l32 -27l-58 -79c-6 -9 -7 -14 -7 -23v-6h42v-120z" />
    <glyph glyph-name="Gdotaccent" unicode="&#x120;" horiz-adv-x="678" 
d="M244 700h197c66 0 91 -7 114 -28c39 -35 53 -68 55 -192h-109c-2 83 -11 103 -22 113c-8 7 -16 11 -50 11h-173c-34 0 -42 -4 -50 -11c-11 -10 -25 -41 -25 -243s14 -233 25 -243c8 -7 16 -11 50 -11h173c34 -1 42 4 50 11c11 10 24 45 24 129v35h-163v96h276v-89
c0 -154 -22 -215 -61 -250c-23 -21 -48 -28 -114 -28h-197c-66 0 -91 7 -114 28c-39 35 -63 86 -63 322s24 287 63 322c23 21 48 28 114 28zM280 768v112h118v-112h-118z" />
    <glyph glyph-name="gdotaccent" unicode="&#x121;" horiz-adv-x="603" 
d="M388 -150h-193c-46 0 -70 10 -88 28c-20 20 -29 48 -29 106h104c1 -24 4 -33 11 -40c6 -6 14 -8 41 -8h131c29 0 40 2 47 9c8 8 11 17 11 67v112c-69 -55 -91 -65 -135 -65h-72c-58 0 -87 10 -110 33c-29 29 -43 61 -43 208s14 179 43 208c23 23 52 33 110 33h72
c44 0 66 -10 135 -66v65h104v-514c0 -96 -9 -122 -34 -147c-18 -18 -44 -29 -105 -29zM322 151c32 0 61 9 101 30v236c-42 22 -72 32 -105 32h-77c-33 0 -46 -4 -55 -13c-15 -15 -19 -29 -19 -136s4 -121 19 -136c9 -9 22 -13 55 -13h81zM240 618v112h118v-112h-118z" />
    <glyph glyph-name="Hbar" unicode="&#x126;" horiz-adv-x="722" 
d="M640 700v-104h94v-92h-94v-504h-112v303h-334v-303h-112v504h-94v92h94v104h112v-104h334v104h112zM194 399h334v105h-334v-105z" />
    <glyph glyph-name="hbar" unicode="&#x127;" horiz-adv-x="598" 
d="M180 0h-104v574h-81v82h81v64h104v-64h140v-82h-140v-99c68 56 90 66 135 66h85c47 0 73 -11 93 -31c21 -21 32 -47 32 -122v-388h-104v381c0 26 -4 42 -14 52c-11 11 -21 15 -56 15h-70c-33 0 -61 -10 -101 -30v-418z" />
    <glyph glyph-name="Iacute" unicode="&#xcd;" horiz-adv-x="288" 
d="M200 0h-112v700h112v-700zM82 758v5l85 107h166v-5l-150 -107h-101z" />
    <glyph glyph-name="iacute" unicode="&#xed;" horiz-adv-x="256" 
d="M180 540v-540h-104v540h104zM66 608v5l85 107h166v-5l-150 -107h-101z" />
    <glyph glyph-name="Ibreve" unicode="&#x12c;" horiz-adv-x="288" 
d="M200 0h-112v700h112v-700zM144 830c47 0 68 19 76 50h76c-3 -79 -57 -125 -152 -125s-149 46 -152 125h76c8 -31 29 -50 76 -50z" />
    <glyph glyph-name="ibreve" unicode="&#x12d;" horiz-adv-x="256" 
d="M180 540v-540h-104v540h104zM128 680c47 0 68 19 76 50h76c-3 -79 -57 -125 -152 -125s-149 46 -152 125h76c8 -31 29 -50 76 -50z" />
    <glyph glyph-name="Icircumflex" unicode="&#xce;" horiz-adv-x="288" 
d="M200 0h-112v700h112v-700zM217 758l-74 52l-74 -52h-85v5l100 117h120l100 -117v-5h-87z" />
    <glyph glyph-name="icircumflex" unicode="&#xee;" horiz-adv-x="256" 
d="M180 540v-540h-104v540h104zM201 608l-74 52l-74 -52h-85v5l100 117h120l100 -117v-5h-87z" />
    <glyph glyph-name="Idieresis" unicode="&#xcf;" horiz-adv-x="288" 
d="M200 0h-112v700h112v-700zM-4 760v110h111v-110h-111zM181 760v110h111v-110h-111z" />
    <glyph glyph-name="idieresis" unicode="&#xef;" horiz-adv-x="256" 
d="M180 540v-540h-104v540h104zM-20 610v110h111v-110h-111zM165 610v110h111v-110h-111z" />
    <glyph glyph-name="Idotaccent" unicode="&#x130;" horiz-adv-x="288" 
d="M200 0h-112v700h112v-700zM85 768v112h118v-112h-118z" />
    <glyph glyph-name="dotlessi" unicode="&#x131;" horiz-adv-x="256" 
d="M180 540v-540h-104v540h104z" />
    <glyph glyph-name="Igrave" unicode="&#xcc;" horiz-adv-x="288" 
d="M200 0h-112v700h112v-700zM206 758h-101l-150 107v5h166l85 -107v-5z" />
    <glyph glyph-name="igrave" unicode="&#xec;" horiz-adv-x="256" 
d="M180 540v-540h-104v540h104zM190 608h-101l-150 107v5h166l85 -107v-5z" />
    <glyph glyph-name="Imacron" unicode="&#x12a;" horiz-adv-x="288" 
d="M200 0h-112v700h112v-700zM-7 760v85h302v-85h-302z" />
    <glyph glyph-name="imacron" unicode="&#x12b;" horiz-adv-x="256" 
d="M180 540v-540h-104v540h104zM-23 610v85h302v-85h-302z" />
    <glyph glyph-name="Iogonek" unicode="&#x12e;" horiz-adv-x="296" 
d="M204 0h-61c-10 -10 -24 -25 -28 -35c-5 -11 -6 -19 -6 -45c0 -31 1 -36 4 -39s6 -4 14 -4h37c9 0 11 1 14 4s5 9 5 49h75c0 -75 -5 -95 -22 -110c-12 -11 -29 -14 -54 -14h-76c-25 0 -42 3 -54 14c-17 15 -22 35 -22 77c0 30 1 45 15 67c8 14 27 32 47 47v689h112v-700z
" />
    <glyph glyph-name="iogonek" unicode="&#x12f;" horiz-adv-x="256" 
d="M180 540v-540h-56c-10 -10 -24 -25 -28 -35c-5 -11 -6 -19 -6 -45c0 -31 1 -36 4 -39s6 -4 14 -4h37c9 0 11 1 14 4s5 9 5 49h75c0 -75 -5 -95 -22 -110c-12 -11 -29 -14 -54 -14h-76c-25 0 -42 3 -54 14c-17 15 -22 35 -22 77c0 30 1 45 15 67c9 15 29 34 50 50v526h104
zM187 730v-112h-118v112h118z" />
    <glyph glyph-name="Kcommaaccent" unicode="&#x136;" horiz-adv-x="627" 
d="M484 700h130l-270 -330l276 -370h-133l-231 315h-62v-315h-112v700h112v-289h60zM281 -70h112v-114c0 -27 -8 -43 -26 -62l-77 -79l-32 27l58 79c6 9 7 14 7 23v6h-42v120z" />
    <glyph glyph-name="kcommaaccent" unicode="&#x137;" horiz-adv-x="534" 
d="M180 0h-104v720h104v-402h39l179 222h123l-221 -259l229 -281h-130l-183 231h-36v-231zM236 -70h112v-114c0 -27 -8 -43 -26 -62l-77 -79l-32 27l58 79c6 9 7 14 7 23v6h-42v120z" />
    <glyph glyph-name="Lacute" unicode="&#x139;" horiz-adv-x="562" 
d="M194 700v-604h339v-96h-451v700h112zM86 758v5l85 107h166v-5l-150 -107h-101z" />
    <glyph glyph-name="lacute" unicode="&#x13a;" horiz-adv-x="256" 
d="M180 0h-104v720h104v-720zM70 758v5l85 107h166v-5l-150 -107h-101z" />
    <glyph glyph-name="Lcaron" unicode="&#x13d;" horiz-adv-x="562" 
d="M194 700v-604h339v-96h-451v700h112zM293 552l-39 16l24 84c2 9 3 15 3 23s-1 14 -3 23l-23 82v20h114v-74c0 -54 -7 -74 -34 -113z" />
    <glyph glyph-name="lcaron" unicode="&#x13e;" horiz-adv-x="256" 
d="M180 0h-104v720h104v-720zM269 552l-39 16l24 84c2 9 3 15 3 23s-1 14 -3 23l-23 82v20h114v-74c0 -54 -7 -74 -34 -113z" />
    <glyph glyph-name="Lcommaaccent" unicode="&#x13b;" horiz-adv-x="562" 
d="M194 700v-604h339v-96h-451v700h112zM252 -70h112v-114c0 -27 -8 -43 -26 -62l-77 -79l-32 27l58 79c6 9 7 14 7 23v6h-42v120z" />
    <glyph glyph-name="lcommaaccent" unicode="&#x13c;" horiz-adv-x="256" 
d="M180 0h-104v720h104v-720zM73 -70h112v-114c0 -27 -8 -43 -26 -62l-77 -79l-32 27l58 79c6 9 7 14 7 23v6h-42v120z" />
    <glyph glyph-name="Ldot" unicode="&#x13f;" horiz-adv-x="562" 
d="M363 324v112h118v-112h-118zM194 700v-604h339v-96h-451v700h112z" />
    <glyph glyph-name="ldot" unicode="&#x140;" horiz-adv-x="360" 
d="M368 304h-118v112h118v-112zM180 0h-104v720h104v-720z" />
    <glyph glyph-name="Lslash" unicode="&#x141;" horiz-adv-x="576" 
d="M208 700v-279l169 50v-94l-169 -50v-231h339v-96h-451v294l-93 -27v94l93 27v312h112z" />
    <glyph glyph-name="lslash" unicode="&#x142;" horiz-adv-x="282" 
d="M193 0h-104v311l-84 -24v94l84 24v315h104v-284l84 25v-94l-84 -25v-342z" />
    <glyph glyph-name="Nacute" unicode="&#x143;" horiz-adv-x="721" 
d="M639 700v-700h-114c-29 0 -40 6 -52 33l-267 515h-15v-548h-109v700h124c29 0 39 -6 51 -33l258 -491h15v524h109zM298 758v5l85 107h166v-5l-150 -107h-101z" />
    <glyph glyph-name="nacute" unicode="&#x144;" horiz-adv-x="598" 
d="M180 0h-104v540h104v-65c68 56 90 66 135 66h85c47 0 73 -11 93 -31c21 -21 32 -47 32 -122v-388h-104v381c0 26 -4 42 -14 52c-11 11 -21 15 -56 15h-70c-33 0 -61 -10 -101 -30v-418zM240 608v5l85 107h166v-5l-150 -107h-101z" />
    <glyph glyph-name="Ncaron" unicode="&#x147;" horiz-adv-x="721" 
d="M639 700v-700h-114c-29 0 -40 6 -52 33l-267 515h-15v-548h-109v700h124c29 0 39 -6 51 -33l258 -491h15v524h109zM299 758l-100 117v5h87l74 -52l74 52h85v-5l-100 -117h-120z" />
    <glyph glyph-name="ncaron" unicode="&#x148;" horiz-adv-x="598" 
d="M180 0h-104v540h104v-65c68 56 90 66 135 66h85c47 0 73 -11 93 -31c21 -21 32 -47 32 -122v-388h-104v381c0 26 -4 42 -14 52c-11 11 -21 15 -56 15h-70c-33 0 -61 -10 -101 -30v-418zM241 608l-100 117v5h87l74 -52l74 52h85v-5l-100 -117h-120z" />
    <glyph glyph-name="Ncommaaccent" unicode="&#x145;" horiz-adv-x="721" 
d="M639 700v-700h-114c-29 0 -40 6 -52 33l-267 515h-15v-548h-109v700h124c29 0 39 -6 51 -33l258 -491h15v524h109zM305 -70h112v-114c0 -27 -8 -43 -26 -62l-77 -79l-32 27l58 79c6 9 7 14 7 23v6h-42v120z" />
    <glyph glyph-name="ncommaaccent" unicode="&#x146;" horiz-adv-x="598" 
d="M180 0h-104v540h104v-65c68 56 90 66 135 66h85c47 0 73 -11 93 -31c21 -21 32 -47 32 -122v-388h-104v381c0 26 -4 42 -14 52c-11 11 -21 15 -56 15h-70c-33 0 -61 -10 -101 -30v-418zM247 -70h112v-114c0 -27 -8 -43 -26 -62l-77 -79l-32 27l58 79c6 9 7 14 7 23v6h-42
v120z" />
    <glyph glyph-name="Ntilde" unicode="&#xd1;" horiz-adv-x="721" 
d="M639 700v-700h-114c-29 0 -40 6 -52 33l-267 515h-15v-548h-109v700h124c29 0 39 -6 51 -33l258 -491h15v524h109zM210 758v63c0 24 5 41 14 50c7 7 17 13 38 13h15c24 0 40 -4 82 -20l70 -26l28 46h53v-63c0 -24 -5 -41 -14 -50c-7 -7 -17 -13 -38 -13h-15
c-24 0 -40 4 -82 20l-70 26l-28 -46h-53z" />
    <glyph glyph-name="ntilde" unicode="&#xf1;" horiz-adv-x="598" 
d="M180 0h-104v540h104v-65c68 56 90 66 135 66h85c47 0 73 -11 93 -31c21 -21 32 -47 32 -122v-388h-104v381c0 26 -4 42 -14 52c-11 11 -21 15 -56 15h-70c-33 0 -61 -10 -101 -30v-418zM152 608v63c0 24 5 41 14 50c7 7 17 13 38 13h15c24 0 40 -4 82 -20l70 -26l28 46
h53v-63c0 -24 -5 -41 -14 -50c-7 -7 -17 -13 -38 -13h-15c-24 0 -40 4 -82 20l-70 26l-28 -46h-53z" />
    <glyph glyph-name="Oacute" unicode="&#xd3;" horiz-adv-x="688" 
d="M244 700h200c66 0 91 -7 114 -28c39 -35 63 -86 63 -322s-24 -287 -63 -322c-23 -21 -48 -28 -114 -28h-200c-66 0 -91 7 -114 28c-39 35 -63 86 -63 322s24 287 63 322c23 21 48 28 114 28zM181 350c0 -202 14 -233 25 -243c8 -7 16 -11 50 -11h176c34 -1 42 4 50 11
c11 10 25 41 25 243s-14 233 -25 243c-8 7 -16 11 -50 11h-176c-34 0 -42 -4 -50 -11c-11 -10 -25 -41 -25 -243zM282 758v5l85 107h166v-5l-150 -107h-101z" />
    <glyph glyph-name="oacute" unicode="&#xf3;" horiz-adv-x="587" 
d="M214 0c-53 0 -85 9 -107 31c-35 35 -45 77 -45 239s10 204 45 239c22 22 54 31 107 31h159c53 0 85 -9 107 -31c35 -35 45 -77 45 -239s-10 -204 -45 -239c-22 -22 -54 -31 -107 -31h-159zM166 270c0 -138 5 -157 15 -167c7 -7 15 -10 46 -10h133c31 0 39 3 46 10
c10 10 15 29 15 167s-5 157 -15 167c-7 7 -15 10 -46 10h-133c-31 0 -39 -3 -46 -10c-10 -10 -15 -29 -15 -167zM231 608v5l85 107h166v-5l-150 -107h-101z" />
    <glyph glyph-name="Obreve" unicode="&#x14e;" horiz-adv-x="688" 
d="M244 700h200c66 0 91 -7 114 -28c39 -35 63 -86 63 -322s-24 -287 -63 -322c-23 -21 -48 -28 -114 -28h-200c-66 0 -91 7 -114 28c-39 35 -63 86 -63 322s24 287 63 322c23 21 48 28 114 28zM181 350c0 -202 14 -233 25 -243c8 -7 16 -11 50 -11h176c34 -1 42 4 50 11
c11 10 25 41 25 243s-14 233 -25 243c-8 7 -16 11 -50 11h-176c-34 0 -42 -4 -50 -11c-11 -10 -25 -41 -25 -243zM344 830c47 0 68 19 76 50h76c-3 -79 -57 -125 -152 -125s-149 46 -152 125h76c8 -31 29 -50 76 -50z" />
    <glyph glyph-name="obreve" unicode="&#x14f;" horiz-adv-x="587" 
d="M214 0c-53 0 -85 9 -107 31c-35 35 -45 77 -45 239s10 204 45 239c22 22 54 31 107 31h159c53 0 85 -9 107 -31c35 -35 45 -77 45 -239s-10 -204 -45 -239c-22 -22 -54 -31 -107 -31h-159zM166 270c0 -138 5 -157 15 -167c7 -7 15 -10 46 -10h133c31 0 39 3 46 10
c10 10 15 29 15 167s-5 157 -15 167c-7 7 -15 10 -46 10h-133c-31 0 -39 -3 -46 -10c-10 -10 -15 -29 -15 -167zM293 680c47 0 68 19 76 50h76c-3 -79 -57 -125 -152 -125s-149 46 -152 125h76c8 -31 29 -50 76 -50z" />
    <glyph glyph-name="Ocircumflex" unicode="&#xd4;" horiz-adv-x="688" 
d="M244 700h200c66 0 91 -7 114 -28c39 -35 63 -86 63 -322s-24 -287 -63 -322c-23 -21 -48 -28 -114 -28h-200c-66 0 -91 7 -114 28c-39 35 -63 86 -63 322s24 287 63 322c23 21 48 28 114 28zM181 350c0 -202 14 -233 25 -243c8 -7 16 -11 50 -11h176c34 -1 42 4 50 11
c11 10 25 41 25 243s-14 233 -25 243c-8 7 -16 11 -50 11h-176c-34 0 -42 -4 -50 -11c-11 -10 -25 -41 -25 -243zM417 758l-74 52l-74 -52h-85v5l100 117h120l100 -117v-5h-87z" />
    <glyph glyph-name="ocircumflex" unicode="&#xf4;" horiz-adv-x="587" 
d="M214 0c-53 0 -85 9 -107 31c-35 35 -45 77 -45 239s10 204 45 239c22 22 54 31 107 31h159c53 0 85 -9 107 -31c35 -35 45 -77 45 -239s-10 -204 -45 -239c-22 -22 -54 -31 -107 -31h-159zM166 270c0 -138 5 -157 15 -167c7 -7 15 -10 46 -10h133c31 0 39 3 46 10
c10 10 15 29 15 167s-5 157 -15 167c-7 7 -15 10 -46 10h-133c-31 0 -39 -3 -46 -10c-10 -10 -15 -29 -15 -167zM366 608l-74 52l-74 -52h-85v5l100 117h120l100 -117v-5h-87z" />
    <glyph glyph-name="Odieresis" unicode="&#xd6;" horiz-adv-x="688" 
d="M244 700h200c66 0 91 -7 114 -28c39 -35 63 -86 63 -322s-24 -287 -63 -322c-23 -21 -48 -28 -114 -28h-200c-66 0 -91 7 -114 28c-39 35 -63 86 -63 322s24 287 63 322c23 21 48 28 114 28zM181 350c0 -202 14 -233 25 -243c8 -7 16 -11 50 -11h176c34 -1 42 4 50 11
c11 10 25 41 25 243s-14 233 -25 243c-8 7 -16 11 -50 11h-176c-34 0 -42 -4 -50 -11c-11 -10 -25 -41 -25 -243zM196 760v110h111v-110h-111zM381 760v110h111v-110h-111z" />
    <glyph glyph-name="odieresis" unicode="&#xf6;" horiz-adv-x="587" 
d="M214 0c-53 0 -85 9 -107 31c-35 35 -45 77 -45 239s10 204 45 239c22 22 54 31 107 31h159c53 0 85 -9 107 -31c35 -35 45 -77 45 -239s-10 -204 -45 -239c-22 -22 -54 -31 -107 -31h-159zM166 270c0 -138 5 -157 15 -167c7 -7 15 -10 46 -10h133c31 0 39 3 46 10
c10 10 15 29 15 167s-5 157 -15 167c-7 7 -15 10 -46 10h-133c-31 0 -39 -3 -46 -10c-10 -10 -15 -29 -15 -167zM145 610v110h111v-110h-111zM330 610v110h111v-110h-111z" />
    <glyph glyph-name="Ograve" unicode="&#xd2;" horiz-adv-x="688" 
d="M244 700h200c66 0 91 -7 114 -28c39 -35 63 -86 63 -322s-24 -287 -63 -322c-23 -21 -48 -28 -114 -28h-200c-66 0 -91 7 -114 28c-39 35 -63 86 -63 322s24 287 63 322c23 21 48 28 114 28zM181 350c0 -202 14 -233 25 -243c8 -7 16 -11 50 -11h176c34 -1 42 4 50 11
c11 10 25 41 25 243s-14 233 -25 243c-8 7 -16 11 -50 11h-176c-34 0 -42 -4 -50 -11c-11 -10 -25 -41 -25 -243zM406 758h-101l-150 107v5h166l85 -107v-5z" />
    <glyph glyph-name="ograve" unicode="&#xf2;" horiz-adv-x="587" 
d="M214 0c-53 0 -85 9 -107 31c-35 35 -45 77 -45 239s10 204 45 239c22 22 54 31 107 31h159c53 0 85 -9 107 -31c35 -35 45 -77 45 -239s-10 -204 -45 -239c-22 -22 -54 -31 -107 -31h-159zM166 270c0 -138 5 -157 15 -167c7 -7 15 -10 46 -10h133c31 0 39 3 46 10
c10 10 15 29 15 167s-5 157 -15 167c-7 7 -15 10 -46 10h-133c-31 0 -39 -3 -46 -10c-10 -10 -15 -29 -15 -167zM355 608h-101l-150 107v5h166l85 -107v-5z" />
    <glyph glyph-name="Ohungarumlaut" unicode="&#x150;" horiz-adv-x="688" 
d="M244 700h200c66 0 91 -7 114 -28c39 -35 63 -86 63 -322s-24 -287 -63 -322c-23 -21 -48 -28 -114 -28h-200c-66 0 -91 7 -114 28c-39 35 -63 86 -63 322s24 287 63 322c23 21 48 28 114 28zM181 350c0 -202 14 -233 25 -243c8 -7 16 -11 50 -11h176c34 -1 42 4 50 11
c11 10 25 41 25 243s-14 233 -25 243c-8 7 -16 11 -50 11h-176c-34 0 -42 -4 -50 -11c-11 -10 -25 -41 -25 -243zM188 758v5l83 107h155v-5l-142 -107h-96zM392 758v5l91 107h155v-5l-150 -107h-96z" />
    <glyph glyph-name="ohungarumlaut" unicode="&#x151;" horiz-adv-x="587" 
d="M214 0c-53 0 -85 9 -107 31c-35 35 -45 77 -45 239s10 204 45 239c22 22 54 31 107 31h159c53 0 85 -9 107 -31c35 -35 45 -77 45 -239s-10 -204 -45 -239c-22 -22 -54 -31 -107 -31h-159zM166 270c0 -138 5 -157 15 -167c7 -7 15 -10 46 -10h133c31 0 39 3 46 10
c10 10 15 29 15 167s-5 157 -15 167c-7 7 -15 10 -46 10h-133c-31 0 -39 -3 -46 -10c-10 -10 -15 -29 -15 -167zM137 608v5l83 107h155v-5l-142 -107h-96zM341 608v5l91 107h155v-5l-150 -107h-96z" />
    <glyph glyph-name="Omacron" unicode="&#x14c;" horiz-adv-x="688" 
d="M244 700h200c66 0 91 -7 114 -28c39 -35 63 -86 63 -322s-24 -287 -63 -322c-23 -21 -48 -28 -114 -28h-200c-66 0 -91 7 -114 28c-39 35 -63 86 -63 322s24 287 63 322c23 21 48 28 114 28zM181 350c0 -202 14 -233 25 -243c8 -7 16 -11 50 -11h176c34 -1 42 4 50 11
c11 10 25 41 25 243s-14 233 -25 243c-8 7 -16 11 -50 11h-176c-34 0 -42 -4 -50 -11c-11 -10 -25 -41 -25 -243zM193 760v85h302v-85h-302z" />
    <glyph glyph-name="omacron" unicode="&#x14d;" horiz-adv-x="587" 
d="M214 0c-53 0 -85 9 -107 31c-35 35 -45 77 -45 239s10 204 45 239c22 22 54 31 107 31h159c53 0 85 -9 107 -31c35 -35 45 -77 45 -239s-10 -204 -45 -239c-22 -22 -54 -31 -107 -31h-159zM166 270c0 -138 5 -157 15 -167c7 -7 15 -10 46 -10h133c31 0 39 3 46 10
c10 10 15 29 15 167s-5 157 -15 167c-7 7 -15 10 -46 10h-133c-31 0 -39 -3 -46 -10c-10 -10 -15 -29 -15 -167zM142 610v85h302v-85h-302z" />
    <glyph glyph-name="Oslash" unicode="&#xd8;" horiz-adv-x="688" 
d="M244 700h200h16l25 53h103l-36 -76c2 -1 4 -3 6 -5c39 -35 63 -86 63 -322s-24 -287 -63 -322c-23 -21 -48 -28 -114 -28h-200h-16l-25 -53h-103l36 75l-6 6c-39 35 -63 86 -63 322s24 287 63 322c23 21 48 28 114 28zM181 350c0 -131 6 -190 13 -218l221 472h-159
c-34 0 -42 -4 -50 -11c-11 -10 -25 -41 -25 -243zM507 350c0 130 -6 189 -13 217l-221 -471h159c34 -1 42 4 50 11c11 10 25 41 25 243z" />
    <glyph glyph-name="oslash" unicode="&#xf8;" horiz-adv-x="592" 
d="M216 0c-10 0 -19 0 -27 1l-28 -51h-98l46 80v1c-35 35 -45 77 -45 239s10 204 45 239c22 22 54 31 107 31h159c9 0 18 -1 27 -1l28 51h98l-47 -81h1c35 -35 45 -77 45 -239s-10 -204 -45 -239c-22 -22 -54 -31 -107 -31h-159zM423 270c0 78 -2 118 -5 140l-178 -317h122
c31 0 39 3 46 10c10 10 15 29 15 167zM168 270c0 -78 2 -118 5 -140l177 317h-121c-31 0 -39 -3 -46 -10c-10 -10 -15 -29 -15 -167z" />
    <glyph glyph-name="Oslashacute" unicode="&#x1fe;" horiz-adv-x="688" 
d="M244 700h200h16l25 53h103l-36 -76c2 -1 4 -3 6 -5c39 -35 63 -86 63 -322s-24 -287 -63 -322c-23 -21 -48 -28 -114 -28h-200h-16l-25 -53h-103l36 75l-6 6c-39 35 -63 86 -63 322s24 287 63 322c23 21 48 28 114 28zM181 350c0 -131 6 -190 13 -218l221 472h-159
c-34 0 -42 -4 -50 -11c-11 -10 -25 -41 -25 -243zM507 350c0 130 -6 189 -13 217l-221 -471h159c34 -1 42 4 50 11c11 10 25 41 25 243zM283 758v5l85 107h166v-5l-150 -107h-101z" />
    <glyph glyph-name="oslashacute" unicode="&#x1ff;" horiz-adv-x="592" 
d="M216 0c-10 0 -19 0 -27 1l-28 -51h-98l46 80v1c-35 35 -45 77 -45 239s10 204 45 239c22 22 54 31 107 31h159c9 0 18 -1 27 -1l28 51h98l-47 -81h1c35 -35 45 -77 45 -239s-10 -204 -45 -239c-22 -22 -54 -31 -107 -31h-159zM423 270c0 78 -2 118 -5 140l-178 -317h122
c31 0 39 3 46 10c10 10 15 29 15 167zM168 270c0 -78 2 -118 5 -140l177 317h-121c-31 0 -39 -3 -46 -10c-10 -10 -15 -29 -15 -167zM235 608v5l85 107h166v-5l-150 -107h-101z" />
    <glyph glyph-name="Otilde" unicode="&#xd5;" horiz-adv-x="688" 
d="M244 700h200c66 0 91 -7 114 -28c39 -35 63 -86 63 -322s-24 -287 -63 -322c-23 -21 -48 -28 -114 -28h-200c-66 0 -91 7 -114 28c-39 35 -63 86 -63 322s24 287 63 322c23 21 48 28 114 28zM181 350c0 -202 14 -233 25 -243c8 -7 16 -11 50 -11h176c34 -1 42 4 50 11
c11 10 25 41 25 243s-14 233 -25 243c-8 7 -16 11 -50 11h-176c-34 0 -42 -4 -50 -11c-11 -10 -25 -41 -25 -243zM194 758v63c0 24 5 41 14 50c7 7 17 13 38 13h15c24 0 40 -4 82 -20l70 -26l28 46h53v-63c0 -24 -5 -41 -14 -50c-7 -7 -17 -13 -38 -13h-15
c-24 0 -40 4 -82 20l-70 26l-28 -46h-53z" />
    <glyph glyph-name="otilde" unicode="&#xf5;" horiz-adv-x="587" 
d="M214 0c-53 0 -85 9 -107 31c-35 35 -45 77 -45 239s10 204 45 239c22 22 54 31 107 31h159c53 0 85 -9 107 -31c35 -35 45 -77 45 -239s-10 -204 -45 -239c-22 -22 -54 -31 -107 -31h-159zM166 270c0 -138 5 -157 15 -167c7 -7 15 -10 46 -10h133c31 0 39 3 46 10
c10 10 15 29 15 167s-5 157 -15 167c-7 7 -15 10 -46 10h-133c-31 0 -39 -3 -46 -10c-10 -10 -15 -29 -15 -167zM143 608v63c0 24 5 41 14 50c7 7 17 13 38 13h15c24 0 40 -4 82 -20l70 -26l28 46h53v-63c0 -24 -5 -41 -14 -50c-7 -7 -17 -13 -38 -13h-15
c-24 0 -40 4 -82 20l-70 26l-28 -46h-53z" />
    <glyph glyph-name="OE" unicode="&#x152;" horiz-adv-x="1015" 
d="M966 0h-670c-85 0 -131 14 -170 49c-46 42 -68 129 -68 301s22 259 68 301c39 35 85 49 170 49h670v-96h-366v-193h303v-96h-303v-219h366v-96zM172 349c0 -158 12 -206 39 -231c20 -19 42 -22 85 -22h192v508h-192c-43 0 -63 -2 -85 -22c-27 -25 -39 -72 -39 -233z" />
    <glyph glyph-name="oe" unicode="&#x153;" horiz-adv-x="935" 
d="M358 0h-144c-53 0 -85 9 -107 31c-35 35 -45 77 -45 239s10 204 45 239c22 22 54 31 107 31h144c53 0 83 -9 105 -31l11 -13l12 13c22 22 52 31 105 31h133c53 0 87 -10 107 -30c35 -35 45 -77 45 -235v-27c0 -8 -3 -12 -12 -12h-337c1 -106 7 -127 15 -135
s15 -10 46 -10h140c23 0 30 4 36 10c7 7 9 19 11 67h101c-2 -84 -10 -114 -37 -141c-17 -17 -40 -27 -88 -27h-160c-53 0 -83 9 -105 31l-12 13c-3 -5 -7 -9 -11 -13c-22 -22 -52 -31 -105 -31zM166 270c0 -138 5 -157 15 -167c7 -7 15 -10 46 -10h133c31 0 39 3 46 10
c10 10 15 29 15 167s-5 157 -15 167c-7 7 -15 10 -46 10h-133c-31 0 -39 -3 -46 -10c-10 -10 -15 -29 -15 -167zM541 438c-9 -9 -13 -27 -14 -119h246c0 91 -6 111 -15 120c-6 6 -15 10 -46 10h-124c-31 0 -39 -3 -47 -11z" />
    <glyph glyph-name="Racute" unicode="&#x154;" horiz-adv-x="673" 
d="M194 381h232c29 0 38 5 43 10c9 9 22 31 22 103s-12 93 -21 102c-5 5 -15 8 -44 8h-232v-223zM483 193c-1 56 -8 70 -22 82c-13 11 -33 14 -73 14h-194v-289h-112v700h377c46 0 79 -8 100 -29c27 -27 45 -65 45 -170c0 -123 -34 -158 -114 -169v-2
c74 -14 103 -32 107 -134c4 -98 7 -158 11 -196h-112c-7 47 -11 113 -13 193zM276 758v5l85 107h166v-5l-150 -107h-101z" />
    <glyph glyph-name="racute" unicode="&#x155;" horiz-adv-x="399" 
d="M180 0h-104v540h104v-79c53 56 82 80 125 80h64v-107h-76c-40 0 -71 -4 -113 -20v-414zM158 608v5l85 107h166v-5l-150 -107h-101z" />
    <glyph glyph-name="Rcaron" unicode="&#x158;" horiz-adv-x="673" 
d="M483 193c-1 56 -8 70 -22 82c-13 11 -33 14 -73 14h-194v-289h-112v700h377c46 0 79 -8 100 -29c27 -27 45 -65 45 -170c0 -123 -34 -158 -114 -169v-2c74 -14 103 -32 107 -134c4 -98 7 -158 11 -196h-112c-7 47 -11 113 -13 193zM194 381h232c29 0 38 5 43 10
c9 9 22 31 22 103s-12 93 -21 102c-5 5 -15 8 -44 8h-232v-223zM277 758l-100 117v5h87l74 -52l74 52h85v-5l-100 -117h-120z" />
    <glyph glyph-name="rcaron" unicode="&#x159;" horiz-adv-x="399" 
d="M180 0h-104v540h104v-79c53 56 82 80 125 80h64v-107h-76c-40 0 -71 -4 -113 -20v-414zM159 608l-100 117v5h87l74 -52l74 52h85v-5l-100 -117h-120z" />
    <glyph glyph-name="Rcommaaccent" unicode="&#x156;" horiz-adv-x="673" 
d="M194 381h232c29 0 38 5 43 10c9 9 22 31 22 103s-12 93 -21 102c-5 5 -15 8 -44 8h-232v-223zM483 193c-1 56 -8 70 -22 82c-13 11 -33 14 -73 14h-194v-289h-112v700h377c46 0 79 -8 100 -29c27 -27 45 -65 45 -170c0 -123 -34 -158 -114 -169v-2
c74 -14 103 -32 107 -134c4 -98 7 -158 11 -196h-112c-7 47 -11 113 -13 193zM283 -70h112v-114c0 -27 -8 -43 -26 -62l-77 -79l-32 27l58 79c6 9 7 14 7 23v6h-42v120z" />
    <glyph glyph-name="rcommaaccent" unicode="&#x157;" horiz-adv-x="399" 
d="M180 0h-104v540h104v-79c53 56 82 80 125 80h64v-107h-76c-40 0 -71 -4 -113 -20v-414zM71 -70h112v-114c0 -27 -8 -43 -26 -62l-77 -79l-32 27l58 79c6 9 7 14 7 23v6h-42v120z" />
    <glyph glyph-name="Sacute" unicode="&#x15a;" horiz-adv-x="653" 
d="M594 203c0 -97 -9 -139 -41 -171c-21 -21 -52 -32 -108 -32h-235c-55 0 -87 7 -109 29c-29 29 -38 63 -40 191h111c2 -87 5 -105 13 -113c6 -6 14 -11 44 -11h197c29 0 38 3 46 11c9 9 11 36 11 95c0 51 -1 67 -12 78c-8 8 -18 11 -46 13l-220 20c-51 5 -81 15 -102 36
c-28 28 -33 61 -33 153c0 90 9 134 41 166c21 21 53 32 106 32h216c55 0 87 -7 109 -29c29 -29 36 -61 40 -186h-111c-2 82 -5 100 -13 108c-6 6 -14 11 -44 11h-177c-28 0 -37 -3 -45 -11c-9 -9 -11 -37 -11 -90c0 -49 1 -66 12 -77c8 -8 18 -9 46 -12l220 -20
c48 -4 79 -14 100 -35c27 -27 35 -61 35 -156zM264 758v5l85 107h166v-5l-150 -107h-101z" />
    <glyph glyph-name="sacute" unicode="&#x15b;" horiz-adv-x="550" 
d="M495 157c0 -75 -9 -110 -32 -133c-17 -17 -41 -24 -81 -24h-208c-37 0 -70 7 -86 23c-23 23 -30 49 -32 147h96c2 -57 4 -70 10 -76c5 -5 11 -7 34 -7h158c21 0 30 3 35 8c6 6 9 16 9 56c0 36 -3 48 -10 55c-6 6 -12 9 -34 11l-183 19c-43 5 -64 11 -80 27
c-22 22 -28 52 -28 124c0 68 11 106 33 128c17 17 39 25 81 25h197c41 0 65 -7 81 -23c22 -22 30 -50 32 -143h-96c-2 56 -6 66 -11 71s-13 8 -33 8h-143c-19 0 -28 -2 -33 -7c-7 -7 -10 -18 -10 -53c0 -34 1 -46 8 -53s13 -9 37 -12l186 -19c42 -4 63 -11 78 -26
c20 -20 25 -55 25 -126zM212 608v5l85 107h166v-5l-150 -107h-101z" />
    <glyph glyph-name="Scaron" unicode="&#x160;" horiz-adv-x="653" 
d="M594 203c0 -97 -9 -139 -41 -171c-21 -21 -52 -32 -108 -32h-235c-55 0 -87 7 -109 29c-29 29 -38 63 -40 191h111c2 -87 5 -105 13 -113c6 -6 14 -11 44 -11h197c29 0 38 3 46 11c9 9 11 36 11 95c0 51 -1 67 -12 78c-8 8 -18 11 -46 13l-220 20c-51 5 -81 15 -102 36
c-28 28 -33 61 -33 153c0 90 9 134 41 166c21 21 53 32 106 32h216c55 0 87 -7 109 -29c29 -29 36 -61 40 -186h-111c-2 82 -5 100 -13 108c-6 6 -14 11 -44 11h-177c-28 0 -37 -3 -45 -11c-9 -9 -11 -37 -11 -90c0 -49 1 -66 12 -77c8 -8 18 -9 46 -12l220 -20
c48 -4 79 -14 100 -35c27 -27 35 -61 35 -156zM265 758l-100 117v5h87l74 -52l74 52h85v-5l-100 -117h-120z" />
    <glyph glyph-name="scaron" unicode="&#x161;" horiz-adv-x="550" 
d="M495 157c0 -75 -9 -110 -32 -133c-17 -17 -41 -24 -81 -24h-208c-37 0 -70 7 -86 23c-23 23 -30 49 -32 147h96c2 -57 4 -70 10 -76c5 -5 11 -7 34 -7h158c21 0 30 3 35 8c6 6 9 16 9 56c0 36 -3 48 -10 55c-6 6 -12 9 -34 11l-183 19c-43 5 -64 11 -80 27
c-22 22 -28 52 -28 124c0 68 11 106 33 128c17 17 39 25 81 25h197c41 0 65 -7 81 -23c22 -22 30 -50 32 -143h-96c-2 56 -6 66 -11 71s-13 8 -33 8h-143c-19 0 -28 -2 -33 -7c-7 -7 -10 -18 -10 -53c0 -34 1 -46 8 -53s13 -9 37 -12l186 -19c42 -4 63 -11 78 -26
c20 -20 25 -55 25 -126zM213 608l-100 117v5h87l74 -52l74 52h85v-5l-100 -117h-120z" />
    <glyph glyph-name="Scedilla" unicode="&#x15e;" horiz-adv-x="653" 
d="M594 203c0 -97 -9 -139 -41 -171c-21 -21 -52 -32 -108 -32h-235c-55 0 -87 7 -109 29c-29 29 -38 63 -40 191h111c2 -87 5 -105 13 -113c6 -6 14 -11 44 -11h197c29 0 38 3 46 11c9 9 11 36 11 95c0 51 -1 67 -12 78c-8 8 -18 11 -46 13l-220 20c-51 5 -81 15 -102 36
c-28 28 -33 61 -33 153c0 90 9 134 41 166c21 21 53 32 106 32h216c55 0 87 -7 109 -29c29 -29 36 -61 40 -186h-111c-2 82 -5 100 -13 108c-6 6 -14 11 -44 11h-177c-28 0 -37 -3 -45 -11c-9 -9 -11 -37 -11 -90c0 -49 1 -66 12 -77c8 -8 18 -9 46 -12l220 -20
c48 -4 79 -14 100 -35c27 -27 35 -61 35 -156zM348 -28c32 0 51 -4 62 -15c12 -12 19 -31 19 -68s-7 -55 -19 -67s-33 -16 -65 -16h-76l-57 40v21h118c12 0 17 1 20 4s4 11 4 19s-1 16 -4 19s-8 4 -20 4h-44v59h62z" />
    <glyph glyph-name="scedilla" unicode="&#x15f;" horiz-adv-x="550" 
d="M495 157c0 -75 -9 -110 -32 -133c-17 -17 -41 -24 -81 -24h-208c-37 0 -70 7 -86 23c-23 23 -30 49 -32 147h96c2 -57 4 -70 10 -76c5 -5 11 -7 34 -7h158c21 0 30 3 35 8c6 6 9 16 9 56c0 36 -3 48 -10 55c-6 6 -12 9 -34 11l-183 19c-43 5 -64 11 -80 27
c-22 22 -28 52 -28 124c0 68 11 106 33 128c17 17 39 25 81 25h197c41 0 65 -7 81 -23c22 -22 30 -50 32 -143h-96c-2 56 -6 66 -11 71s-13 8 -33 8h-143c-19 0 -28 -2 -33 -7c-7 -7 -10 -18 -10 -53c0 -34 1 -46 8 -53s13 -9 37 -12l186 -19c42 -4 63 -11 78 -26
c20 -20 25 -55 25 -126zM291 -28c32 0 51 -4 62 -15c12 -12 19 -31 19 -68s-7 -55 -19 -67s-33 -16 -65 -16h-76l-57 40v21h118c12 0 17 1 20 4s4 11 4 19s-1 16 -4 19s-8 4 -20 4h-44v59h62z" />
    <glyph glyph-name="Scommaaccent" unicode="&#x218;" horiz-adv-x="653" 
d="M594 203c0 -97 -9 -139 -41 -171c-21 -21 -52 -32 -108 -32h-235c-55 0 -87 7 -109 29c-29 29 -38 63 -40 191h111c2 -87 5 -105 13 -113c6 -6 14 -11 44 -11h197c29 0 38 3 46 11c9 9 11 36 11 95c0 51 -1 67 -12 78c-8 8 -18 11 -46 13l-220 20c-51 5 -81 15 -102 36
c-28 28 -33 61 -33 153c0 90 9 134 41 166c21 21 53 32 106 32h216c55 0 87 -7 109 -29c29 -29 36 -61 40 -186h-111c-2 82 -5 100 -13 108c-6 6 -14 11 -44 11h-177c-28 0 -37 -3 -45 -11c-9 -9 -11 -37 -11 -90c0 -49 1 -66 12 -77c8 -8 18 -9 46 -12l220 -20
c48 -4 79 -14 100 -35c27 -27 35 -61 35 -156zM271 -70h112v-114c0 -27 -8 -43 -26 -62l-77 -79l-32 27l58 79c6 9 7 14 7 23v6h-42v120z" />
    <glyph glyph-name="scommaaccent" unicode="&#x219;" horiz-adv-x="550" 
d="M495 157c0 -75 -9 -110 -32 -133c-17 -17 -41 -24 -81 -24h-208c-37 0 -70 7 -86 23c-23 23 -30 49 -32 147h96c2 -57 4 -70 10 -76c5 -5 11 -7 34 -7h158c21 0 30 3 35 8c6 6 9 16 9 56c0 36 -3 48 -10 55c-6 6 -12 9 -34 11l-183 19c-43 5 -64 11 -80 27
c-22 22 -28 52 -28 124c0 68 11 106 33 128c17 17 39 25 81 25h197c41 0 65 -7 81 -23c22 -22 30 -50 32 -143h-96c-2 56 -6 66 -11 71s-13 8 -33 8h-143c-19 0 -28 -2 -33 -7c-7 -7 -10 -18 -10 -53c0 -34 1 -46 8 -53s13 -9 37 -12l186 -19c42 -4 63 -11 78 -26
c20 -20 25 -55 25 -126zM219 -70h112v-114c0 -27 -8 -43 -26 -62l-77 -79l-32 27l58 79c6 9 7 14 7 23v6h-42v120z" />
    <glyph glyph-name="Tcaron" unicode="&#x164;" horiz-adv-x="600" 
d="M576 604h-220v-604h-112v604h-220v96h552v-96zM239 758l-100 117v5h87l74 -52l74 52h85v-5l-100 -117h-120z" />
    <glyph glyph-name="tcaron" unicode="&#x165;" horiz-adv-x="387" 
d="M347 92v-70l-61 -18c-15 -4 -42 -8 -68 -8c-37 0 -62 6 -81 25c-18 18 -23 41 -23 84v344h-94v91h94v134h105v-134h129v-91h-129v-315c0 -25 2 -32 7 -37c4 -4 14 -5 39 -5h82zM297 596l-39 16l24 84c2 9 3 15 3 23s-1 14 -3 23l-23 82v20h114v-74c0 -54 -7 -74 -34 -113
z" />
    <glyph glyph-name="Tcommaaccent" unicode="&#x162;" horiz-adv-x="600" 
d="M576 604h-220v-604h-112v604h-220v96h552v-96zM245 -70h112v-114c0 -27 -8 -43 -26 -62l-77 -79l-32 27l58 79c6 9 7 14 7 23v6h-42v120z" />
    <glyph glyph-name="tcommaaccent" unicode="&#x163;" horiz-adv-x="387" 
d="M347 92v-70l-61 -18c-15 -4 -42 -8 -68 -8c-37 0 -62 6 -81 25c-18 18 -23 41 -23 84v344h-94v91h94v134h105v-134h129v-91h-129v-315c0 -25 2 -32 7 -37c4 -4 14 -5 39 -5h82zM129 -70h112v-114c0 -27 -8 -43 -26 -62l-77 -79l-32 27l58 79c6 9 7 14 7 23v6h-42v120z
" />
    <glyph glyph-name="Thorn" unicode="&#xde;" horiz-adv-x="630" 
d="M194 225h209c35 0 47 3 54 9c11 9 25 32 25 116c0 85 -14 107 -25 116c-7 6 -19 9 -54 9h-209v-250zM194 700v-129h237c51 0 86 -6 108 -26c30 -27 57 -72 57 -198c0 -120 -28 -165 -57 -192c-22 -20 -57 -26 -108 -26h-237v-129h-112v700h112z" />
    <glyph glyph-name="thorn" unicode="&#xfe;" horiz-adv-x="603" 
d="M76 -150v870h104v-245c68 56 90 66 135 66h73c58 0 87 -10 110 -33c29 -29 43 -70 43 -238s-14 -209 -43 -238c-23 -23 -52 -33 -110 -33h-73c-45 0 -67 10 -135 65v-214h-104zM281 448c-33 0 -61 -10 -101 -30v-294c42 -22 71 -32 105 -32h78c33 0 46 4 55 13
c15 15 19 44 19 165s-4 150 -19 165c-9 9 -22 13 -55 13h-82z" />
    <glyph glyph-name="Uacute" unicode="&#xda;" horiz-adv-x="709" 
d="M627 700v-409c0 -176 -15 -212 -52 -249c-32 -32 -80 -42 -172 -42h-102c-91 0 -138 11 -168 41c-37 37 -51 72 -51 250v409h112v-433c0 -127 10 -138 24 -152c11 -11 30 -16 107 -16h63c75 0 93 4 105 16c15 15 22 23 22 152v433h112zM292 758v5l85 107h166v-5
l-150 -107h-101z" />
    <glyph glyph-name="uacute" unicode="&#xfa;" horiz-adv-x="598" 
d="M418 540h104v-540h-104v65c-68 -55 -91 -66 -135 -66h-85c-47 0 -73 11 -93 31c-21 21 -32 47 -32 122v388h104v-381c0 -26 4 -42 14 -52c11 -11 21 -15 56 -15h70c33 0 60 9 101 30v418zM238 608v5l85 107h166v-5l-150 -107h-101z" />
    <glyph glyph-name="Ubreve" unicode="&#x16c;" horiz-adv-x="709" 
d="M627 700v-409c0 -176 -15 -212 -52 -249c-32 -32 -80 -42 -172 -42h-102c-91 0 -138 11 -168 41c-37 37 -51 72 -51 250v409h112v-433c0 -127 10 -138 24 -152c11 -11 30 -16 107 -16h63c75 0 93 4 105 16c15 15 22 23 22 152v433h112zM354 830c47 0 68 19 76 50h76
c-3 -79 -57 -125 -152 -125s-149 46 -152 125h76c8 -31 29 -50 76 -50z" />
    <glyph glyph-name="ubreve" unicode="&#x16d;" horiz-adv-x="598" 
d="M418 540h104v-540h-104v65c-68 -55 -91 -66 -135 -66h-85c-47 0 -73 11 -93 31c-21 21 -32 47 -32 122v388h104v-381c0 -26 4 -42 14 -52c11 -11 21 -15 56 -15h70c33 0 60 9 101 30v418zM300 680c47 0 68 19 76 50h76c-3 -79 -57 -125 -152 -125s-149 46 -152 125h76
c8 -31 29 -50 76 -50z" />
    <glyph glyph-name="Ucircumflex" unicode="&#xdb;" horiz-adv-x="709" 
d="M627 700v-409c0 -176 -15 -212 -52 -249c-32 -32 -80 -42 -172 -42h-102c-91 0 -138 11 -168 41c-37 37 -51 72 -51 250v409h112v-433c0 -127 10 -138 24 -152c11 -11 30 -16 107 -16h63c75 0 93 4 105 16c15 15 22 23 22 152v433h112zM427 758l-74 52l-74 -52h-85v5
l100 117h120l100 -117v-5h-87z" />
    <glyph glyph-name="ucircumflex" unicode="&#xfb;" horiz-adv-x="598" 
d="M418 540h104v-540h-104v65c-68 -55 -91 -66 -135 -66h-85c-47 0 -73 11 -93 31c-21 21 -32 47 -32 122v388h104v-381c0 -26 4 -42 14 -52c11 -11 21 -15 56 -15h70c33 0 60 9 101 30v418zM373 608l-74 52l-74 -52h-85v5l100 117h120l100 -117v-5h-87z" />
    <glyph glyph-name="Udieresis" unicode="&#xdc;" horiz-adv-x="709" 
d="M627 700v-409c0 -176 -15 -212 -52 -249c-32 -32 -80 -42 -172 -42h-102c-91 0 -138 11 -168 41c-37 37 -51 72 -51 250v409h112v-433c0 -127 10 -138 24 -152c11 -11 30 -16 107 -16h63c75 0 93 4 105 16c15 15 22 23 22 152v433h112zM206 760v110h111v-110h-111z
M391 760v110h111v-110h-111z" />
    <glyph glyph-name="udieresis" unicode="&#xfc;" horiz-adv-x="598" 
d="M418 540h104v-540h-104v65c-68 -55 -91 -66 -135 -66h-85c-47 0 -73 11 -93 31c-21 21 -32 47 -32 122v388h104v-381c0 -26 4 -42 14 -52c11 -11 21 -15 56 -15h70c33 0 60 9 101 30v418zM337 610v110h111v-110h-111zM152 610v110h111v-110h-111z" />
    <glyph glyph-name="Ugrave" unicode="&#xd9;" horiz-adv-x="709" 
d="M627 700v-409c0 -176 -15 -212 -52 -249c-32 -32 -80 -42 -172 -42h-102c-91 0 -138 11 -168 41c-37 37 -51 72 -51 250v409h112v-433c0 -127 10 -138 24 -152c11 -11 30 -16 107 -16h63c75 0 93 4 105 16c15 15 22 23 22 152v433h112zM416 758h-101l-150 107v5h166
l85 -107v-5z" />
    <glyph glyph-name="ugrave" unicode="&#xf9;" horiz-adv-x="598" 
d="M418 540h104v-540h-104v65c-68 -55 -91 -66 -135 -66h-85c-47 0 -73 11 -93 31c-21 21 -32 47 -32 122v388h104v-381c0 -26 4 -42 14 -52c11 -11 21 -15 56 -15h70c33 0 60 9 101 30v418zM362 608h-101l-150 107v5h166l85 -107v-5z" />
    <glyph glyph-name="Uhungarumlaut" unicode="&#x170;" horiz-adv-x="709" 
d="M627 700v-409c0 -176 -15 -212 -52 -249c-32 -32 -80 -42 -172 -42h-102c-91 0 -138 11 -168 41c-37 37 -51 72 -51 250v409h112v-433c0 -127 10 -138 24 -152c11 -11 30 -16 107 -16h63c75 0 93 4 105 16c15 15 22 23 22 152v433h112zM198 758v5l83 107h155v-5
l-142 -107h-96zM402 758v5l91 107h155v-5l-150 -107h-96z" />
    <glyph glyph-name="uhungarumlaut" unicode="&#x171;" horiz-adv-x="598" 
d="M418 540h104v-540h-104v65c-68 -55 -91 -66 -135 -66h-85c-47 0 -73 11 -93 31c-21 21 -32 47 -32 122v388h104v-381c0 -26 4 -42 14 -52c11 -11 21 -15 56 -15h70c33 0 60 9 101 30v418zM348 608v5l91 107h155v-5l-150 -107h-96zM144 608v5l83 107h155v-5l-142 -107h-96
z" />
    <glyph glyph-name="Umacron" unicode="&#x16a;" horiz-adv-x="709" 
d="M627 700v-409c0 -176 -15 -212 -52 -249c-32 -32 -80 -42 -172 -42h-102c-91 0 -138 11 -168 41c-37 37 -51 72 -51 250v409h112v-433c0 -127 10 -138 24 -152c11 -11 30 -16 107 -16h63c75 0 93 4 105 16c15 15 22 23 22 152v433h112zM203 760v85h302v-85h-302z" />
    <glyph glyph-name="umacron" unicode="&#x16b;" horiz-adv-x="598" 
d="M418 540h104v-540h-104v65c-68 -55 -91 -66 -135 -66h-85c-47 0 -73 11 -93 31c-21 21 -32 47 -32 122v388h104v-381c0 -26 4 -42 14 -52c11 -11 21 -15 56 -15h70c33 0 60 9 101 30v418zM149 610v85h302v-85h-302z" />
    <glyph glyph-name="Uogonek" unicode="&#x172;" horiz-adv-x="709" 
d="M422 -70h75c0 -75 -5 -95 -22 -110c-12 -11 -29 -14 -54 -14h-76c-25 0 -42 3 -54 14c-17 15 -22 35 -22 77c0 30 1 45 15 67c6 11 19 24 33 36h-16c-91 0 -138 11 -168 41c-37 37 -51 72 -51 250v409h112v-433c0 -127 10 -138 24 -152c11 -11 30 -16 107 -16h63
c75 0 93 4 105 16c15 15 22 23 22 152v433h112v-409c0 -176 -15 -212 -52 -249c-32 -32 -80 -42 -172 -42h-21c-10 -10 -24 -25 -28 -35c-5 -11 -6 -19 -6 -45c0 -31 1 -36 4 -39s6 -4 14 -4h37c9 0 11 1 14 4s5 9 5 49z" />
    <glyph glyph-name="uogonek" unicode="&#x173;" horiz-adv-x="598" 
d="M418 540h104v-540h-62c-12 -12 -37 -39 -42 -52c-4 -10 -5 -19 -5 -36c0 -23 1 -28 4 -31s6 -4 14 -4h37c9 0 11 1 14 4s5 9 5 49h75c0 -75 -5 -95 -22 -110c-12 -11 -29 -14 -54 -14h-76c-25 0 -42 3 -54 14c-17 15 -22 36 -22 73c0 25 1 42 15 63c13 21 43 45 69 65v44
c-68 -55 -91 -66 -135 -66h-85c-47 0 -73 11 -93 31c-21 21 -32 47 -32 122v388h104v-381c0 -26 4 -42 14 -52c11 -11 21 -15 56 -15h70c33 0 60 9 101 30v418z" />
    <glyph glyph-name="Uring" unicode="&#x16e;" horiz-adv-x="709" 
d="M627 700v-409c0 -176 -15 -212 -52 -249c-32 -32 -80 -42 -172 -42h-102c-91 0 -138 11 -168 41c-37 37 -51 72 -51 250v409h112v-433c0 -127 10 -138 24 -152c11 -11 30 -16 107 -16h63c75 0 93 4 105 16c15 15 22 23 22 152v433h112zM385 904h-62c-17 0 -21 -1 -26 -6
s-8 -14 -8 -38s3 -33 8 -38s9 -6 26 -6h62c17 0 21 1 26 6s8 14 8 38s-3 33 -8 38s-9 6 -26 6zM395 760h-82c-32 0 -54 7 -67 20c-20 20 -26 41 -26 80s6 60 26 80c13 13 35 20 67 20h82c32 0 54 -7 67 -20c20 -20 26 -41 26 -80s-6 -60 -26 -80c-13 -13 -35 -20 -67 -20z
" />
    <glyph glyph-name="uring" unicode="&#x16f;" horiz-adv-x="598" 
d="M418 540h104v-540h-104v65c-68 -55 -91 -66 -135 -66h-85c-47 0 -73 11 -93 31c-21 21 -32 47 -32 122v388h104v-381c0 -26 4 -42 14 -52c11 -11 21 -15 56 -15h70c33 0 60 9 101 30v418zM341 610h-82c-32 0 -54 7 -67 20c-20 20 -26 41 -26 80s6 60 26 80
c13 13 35 20 67 20h82c32 0 54 -7 67 -20c20 -20 26 -41 26 -80s-6 -60 -26 -80c-13 -13 -35 -20 -67 -20zM331 754h-62c-17 0 -21 -1 -26 -6s-8 -14 -8 -38s3 -33 8 -38s9 -6 26 -6h62c17 0 21 1 26 6s8 14 8 38s-3 33 -8 38s-9 6 -26 6z" />
    <glyph glyph-name="Wacute" unicode="&#x1e82;" horiz-adv-x="947" 
d="M916 700l-148 -679c-4 -20 -11 -24 -40 -24h-81c-29 0 -35 4 -40 26l-126 527h-13l-126 -527c-5 -22 -13 -26 -40 -26h-82c-29 0 -36 3 -40 24l-149 679h119l107 -558h13l126 527c6 28 15 33 44 33h73c29 0 38 -5 44 -33l125 -527h13l108 558h113zM413 758v5l85 107h166
v-5l-150 -107h-101z" />
    <glyph glyph-name="wacute" unicode="&#x1e83;" horiz-adv-x="764" 
d="M25 540h108l76 -422h10l94 396c5 21 14 28 37 28h70c22 0 32 -7 37 -28l97 -396h10l74 422h101l-110 -515c-5 -22 -14 -27 -36 -27h-78c-23 0 -31 9 -36 28l-93 385h-8l-93 -385c-5 -20 -14 -28 -36 -28h-78c-22 0 -31 5 -36 27zM321 608v5l85 107h166v-5l-150 -107h-101
z" />
    <glyph glyph-name="Wcircumflex" unicode="&#x174;" horiz-adv-x="947" 
d="M916 700l-148 -679c-4 -20 -11 -24 -40 -24h-81c-29 0 -35 4 -40 26l-126 527h-13l-126 -527c-5 -22 -13 -26 -40 -26h-82c-29 0 -36 3 -40 24l-149 679h119l107 -558h13l126 527c6 28 15 33 44 33h73c29 0 38 -5 44 -33l125 -527h13l108 558h113zM548 758l-74 52
l-74 -52h-85v5l100 117h120l100 -117v-5h-87z" />
    <glyph glyph-name="wcircumflex" unicode="&#x175;" horiz-adv-x="764" 
d="M25 540h108l76 -422h10l94 396c5 21 14 28 37 28h70c22 0 32 -7 37 -28l97 -396h10l74 422h101l-110 -515c-5 -22 -14 -27 -36 -27h-78c-23 0 -31 9 -36 28l-93 385h-8l-93 -385c-5 -20 -14 -28 -36 -28h-78c-22 0 -31 5 -36 27zM456 608l-74 52l-74 -52h-85v5l100 117
h120l100 -117v-5h-87z" />
    <glyph glyph-name="Wdieresis" unicode="&#x1e84;" horiz-adv-x="947" 
d="M916 700l-148 -679c-4 -20 -11 -24 -40 -24h-81c-29 0 -35 4 -40 26l-126 527h-13l-126 -527c-5 -22 -13 -26 -40 -26h-82c-29 0 -36 3 -40 24l-149 679h119l107 -558h13l126 527c6 28 15 33 44 33h73c29 0 38 -5 44 -33l125 -527h13l108 558h113zM327 760v110h111v-110
h-111zM512 760v110h111v-110h-111z" />
    <glyph glyph-name="wdieresis" unicode="&#x1e85;" horiz-adv-x="764" 
d="M25 540h108l76 -422h10l94 396c5 21 14 28 37 28h70c22 0 32 -7 37 -28l97 -396h10l74 422h101l-110 -515c-5 -22 -14 -27 -36 -27h-78c-23 0 -31 9 -36 28l-93 385h-8l-93 -385c-5 -20 -14 -28 -36 -28h-78c-22 0 -31 5 -36 27zM235 610v110h111v-110h-111zM420 610v110
h111v-110h-111z" />
    <glyph glyph-name="Wgrave" unicode="&#x1e80;" horiz-adv-x="947" 
d="M916 700l-148 -679c-4 -20 -11 -24 -40 -24h-81c-29 0 -35 4 -40 26l-126 527h-13l-126 -527c-5 -22 -13 -26 -40 -26h-82c-29 0 -36 3 -40 24l-149 679h119l107 -558h13l126 527c6 28 15 33 44 33h73c29 0 38 -5 44 -33l125 -527h13l108 558h113zM537 758h-101l-150 107
v5h166l85 -107v-5z" />
    <glyph glyph-name="wgrave" unicode="&#x1e81;" horiz-adv-x="764" 
d="M25 540h108l76 -422h10l94 396c5 21 14 28 37 28h70c22 0 32 -7 37 -28l97 -396h10l74 422h101l-110 -515c-5 -22 -14 -27 -36 -27h-78c-23 0 -31 9 -36 28l-93 385h-8l-93 -385c-5 -20 -14 -28 -36 -28h-78c-22 0 -31 5 -36 27zM445 608h-101l-150 107v5h166l85 -107v-5
z" />
    <glyph glyph-name="Yacute" unicode="&#xdd;" horiz-adv-x="607" 
d="M604 700l-243 -420v-280h-112v277l-246 423h123l176 -311h8l173 311h121zM244 758v5l85 107h166v-5l-150 -107h-101z" />
    <glyph glyph-name="yacute" unicode="&#xfd;" horiz-adv-x="548" 
d="M18 540h119l142 -393h7l126 393h112l-221 -625c-17 -48 -45 -67 -97 -67c-35 0 -80 4 -110 7v87h98c13 0 17 6 22 18l15 40zM218 608v5l85 107h166v-5l-150 -107h-101z" />
    <glyph glyph-name="Ycircumflex" unicode="&#x176;" horiz-adv-x="607" 
d="M604 700l-243 -420v-280h-112v277l-246 423h123l176 -311h8l173 311h121zM379 758l-74 52l-74 -52h-85v5l100 117h120l100 -117v-5h-87z" />
    <glyph glyph-name="ycircumflex" unicode="&#x177;" horiz-adv-x="548" 
d="M18 540h119l142 -393h7l126 393h112l-221 -625c-17 -48 -45 -67 -97 -67c-35 0 -80 4 -110 7v87h98c13 0 17 6 22 18l15 40zM353 608l-74 52l-74 -52h-85v5l100 117h120l100 -117v-5h-87z" />
    <glyph glyph-name="Ydieresis" unicode="&#x178;" horiz-adv-x="607" 
d="M604 700l-243 -420v-280h-112v277l-246 423h123l176 -311h8l173 311h121zM158 760v110h111v-110h-111zM343 760v110h111v-110h-111z" />
    <glyph glyph-name="ydieresis" unicode="&#xff;" horiz-adv-x="548" 
d="M18 540h119l142 -393h7l126 393h112l-221 -625c-17 -48 -45 -67 -97 -67c-35 0 -80 4 -110 7v87h98c13 0 17 6 22 18l15 40zM317 610v110h111v-110h-111zM132 610v110h111v-110h-111z" />
    <glyph glyph-name="Ygrave" unicode="&#x1ef2;" horiz-adv-x="607" 
d="M604 700l-243 -420v-280h-112v277l-246 423h123l176 -311h8l173 311h121zM368 758h-101l-150 107v5h166l85 -107v-5z" />
    <glyph glyph-name="ygrave" unicode="&#x1ef3;" horiz-adv-x="548" 
d="M18 540h119l142 -393h7l126 393h112l-221 -625c-17 -48 -45 -67 -97 -67c-35 0 -80 4 -110 7v87h98c13 0 17 6 22 18l15 40zM342 608h-101l-150 107v5h166l85 -107v-5z" />
    <glyph glyph-name="Zacute" unicode="&#x179;" horiz-adv-x="625" 
d="M578 96v-96h-530v73l394 531h-374v96h515v-73l-394 -531h389zM256 758v5l85 107h166v-5l-150 -107h-101z" />
    <glyph glyph-name="zacute" unicode="&#x17a;" horiz-adv-x="502" 
d="M461 93v-93h-424v62l290 385h-274v93h414v-56l-295 -391h289zM195 608v5l85 107h166v-5l-150 -107h-101z" />
    <glyph glyph-name="Zcaron" unicode="&#x17d;" horiz-adv-x="625" 
d="M578 96v-96h-530v73l394 531h-374v96h515v-73l-394 -531h389zM257 758l-100 117v5h87l74 -52l74 52h85v-5l-100 -117h-120z" />
    <glyph glyph-name="zcaron" unicode="&#x17e;" horiz-adv-x="502" 
d="M461 93v-93h-424v62l290 385h-274v93h414v-56l-295 -391h289zM196 608l-100 117v5h87l74 -52l74 52h85v-5l-100 -117h-120z" />
    <glyph glyph-name="Zdotaccent" unicode="&#x17b;" horiz-adv-x="625" 
d="M578 96v-96h-530v73l394 531h-374v96h515v-73l-394 -531h389zM259 768v112h118v-112h-118z" />
    <glyph glyph-name="zdotaccent" unicode="&#x17c;" horiz-adv-x="502" 
d="M461 93v-93h-424v62l290 385h-274v93h414v-56l-295 -391h289zM198 618v112h118v-112h-118z" />
    <glyph glyph-name="schwa" unicode="&#x259;" horiz-adv-x="573" 
d="M62 292c0 8 3 12 12 12h337c-1 105 -7 127 -15 135s-15 10 -46 10h-140c-23 0 -30 -4 -36 -10c-7 -7 -9 -19 -11 -67h-101c2 84 10 114 37 141c17 17 40 27 88 27h175c53 0 85 -9 107 -31c35 -35 45 -77 45 -239s-10 -204 -45 -239c-22 -22 -54 -31 -107 -31h-148
c-53 0 -87 10 -107 30c-35 35 -45 77 -45 235v27zM397 102c8 8 13 26 14 119h-246c0 -91 6 -111 15 -120c6 -6 15 -10 46 -10h124c31 0 39 3 47 11z" />
    <glyph glyph-name="germandbls" unicode="&#xdf;" horiz-adv-x="631" 
d="M122 0v449h-89v91h89v23c0 69 12 103 34 125c21 21 46 32 96 32h153c49 0 81 -7 102 -28c27 -27 38 -63 38 -155c0 -99 -24 -126 -83 -142v-1c81 -12 110 -45 110 -174c0 -112 -11 -157 -41 -187c-25 -25 -62 -33 -120 -33h-110v89h85c36 0 55 3 63 11
c10 10 16 31 16 124c0 83 -6 103 -15 112c-7 7 -15 10 -48 10h-90v93h64c31 0 43 2 50 9c9 9 13 27 13 89c0 58 -5 75 -14 84c-7 7 -18 11 -47 11h-99c-18 0 -33 -4 -40 -11c-8 -8 -13 -23 -13 -58v-563h-104z" />
    <glyph glyph-name="zero" unicode="0" horiz-adv-x="683" 
d="M406 604h-129c-39 0 -50 -5 -60 -14c-13 -12 -31 -47 -31 -240s18 -228 31 -240c10 -9 21 -14 60 -14h129c39 0 50 5 60 14c13 12 31 47 31 240s-18 228 -31 240c-10 9 -21 14 -60 14zM275 700h133c76 0 108 -6 139 -34c39 -35 69 -104 69 -316s-30 -281 -69 -316
c-31 -28 -63 -34 -139 -34h-133c-76 0 -108 6 -139 34c-39 35 -69 104 -69 316s30 281 69 316c31 28 63 34 139 34z" />
    <glyph glyph-name="one" unicode="1" horiz-adv-x="380" 
d="M280 0h-112v587l-118 -40l-32 91l170 63h92v-701z" />
    <glyph glyph-name="two" unicode="2" horiz-adv-x="635" 
d="M68 0v77c0 117 12 156 49 194c25 26 51 40 107 62l174 68c35 14 46 26 52 38c8 16 13 32 13 78c0 34 -8 60 -18 70c-11 11 -27 14 -66 14h-106c-38 0 -51 -6 -60 -16c-7 -8 -15 -34 -17 -100h-115c3 107 18 150 48 180c24 24 63 35 128 35h154c61 0 97 -10 120 -33
c36 -36 47 -93 47 -150c0 -74 -10 -109 -35 -143c-22 -30 -57 -48 -114 -71l-176 -69c-17 -7 -41 -18 -53 -31c-15 -17 -22 -33 -22 -94v-10h404v-99h-514z" />
    <glyph glyph-name="three" unicode="3" horiz-adv-x="661" 
d="M395 316h-149v93h142c34 0 48 4 58 14c9 9 20 37 20 84s-11 75 -20 84s-23 13 -57 13h-129c-34 0 -48 -4 -57 -13s-17 -41 -20 -102h-115c0 84 15 141 51 177c23 23 62 34 122 34h179c60 0 96 -10 119 -33c36 -36 47 -93 47 -150c0 -93 -43 -141 -94 -153v-2
c57 -10 100 -54 100 -160c0 -75 -11 -133 -47 -169c-23 -23 -59 -33 -119 -33h-191c-60 0 -100 11 -123 34c-36 36 -50 93 -50 192h115c3 -79 10 -108 19 -117c10 -9 24 -13 58 -13h139c35 0 49 4 59 14c9 9 20 39 20 96c0 58 -11 88 -20 97c-10 9 -23 13 -57 13z" />
    <glyph glyph-name="four" unicode="4" horiz-adv-x="658" 
d="M501 0h-109v177h-347v36c0 32 7 54 25 83l214 347c27 44 47 57 85 57h132v-432h118v-91h-118v-177zM392 608h-17l-206 -340h223v340z" />
    <glyph glyph-name="five" unicode="5" horiz-adv-x="665" 
d="M174 309l-88 30l24 361h461v-100h-358l-15 -197h9c48 42 73 43 143 43h63c66 0 104 -11 131 -38c35 -35 51 -84 51 -183s-16 -149 -51 -184c-27 -27 -65 -41 -131 -41h-164c-58 0 -106 10 -130 34c-33 33 -47 72 -48 176h115c2 -68 12 -92 21 -100c9 -9 26 -14 58 -14
h131c31 0 49 7 58 15c12 11 22 41 22 114s-10 100 -22 111c-9 8 -25 14 -58 14h-77c-51 0 -85 -7 -145 -41z" />
    <glyph glyph-name="six" unicode="6" horiz-adv-x="661" 
d="M217 588c-15 -13 -32 -51 -32 -229c58 46 79 54 121 54h119c66 0 103 -8 129 -34c34 -33 43 -81 43 -169s-15 -137 -49 -170c-26 -26 -63 -40 -127 -40h-146c-76 0 -109 9 -140 37c-39 35 -68 101 -68 313c0 204 29 277 70 314c33 30 67 36 147 36h131
c59 0 95 -10 117 -33c30 -31 44 -69 45 -164h-116c-3 57 -8 77 -18 87s-24 14 -55 14h-104c-44 0 -56 -6 -67 -16zM396 317h-124c-28 0 -54 -7 -87 -23c4 -140 20 -171 33 -182c10 -10 20 -16 62 -16h116c35 0 51 4 64 17c14 14 19 43 19 93s-5 80 -19 94
c-13 13 -29 17 -64 17z" />
    <glyph glyph-name="seven" unicode="7" horiz-adv-x="589" 
d="M50 600v100h492v-73l-302 -627h-122l292 600h-360z" />
    <glyph glyph-name="eight" unicode="8" horiz-adv-x="664" 
d="M269 409h126c31 0 45 4 56 15c12 12 17 35 17 85c0 44 -5 68 -17 80c-11 11 -25 15 -56 15h-126c-31 0 -45 -4 -56 -15c-12 -12 -17 -36 -17 -80c0 -50 5 -73 17 -85c11 -11 25 -15 56 -15zM243 700h178c60 0 95 -13 119 -38c33 -31 47 -77 47 -148
c0 -100 -34 -141 -92 -150v-2c63 -10 100 -56 100 -162c0 -78 -15 -127 -49 -160c-26 -26 -63 -40 -127 -40h-174c-64 0 -101 14 -127 40c-34 33 -49 82 -49 160c0 106 37 152 100 162v2c-58 9 -92 50 -92 150c0 71 14 117 47 148c24 25 59 38 119 38zM271 96h122
c35 0 51 4 64 17c14 14 19 41 19 91c0 57 -5 83 -19 97c-13 13 -29 17 -64 17h-122c-35 0 -51 -4 -64 -17c-14 -14 -19 -40 -19 -97c0 -50 5 -77 19 -91c13 -13 29 -17 64 -17z" />
    <glyph glyph-name="nine" unicode="9" horiz-adv-x="664" 
d="M447 112c14 13 31 36 32 213c-58 -45 -80 -53 -121 -53h-120c-64 0 -101 8 -127 34c-34 33 -44 86 -44 177s15 144 49 177c26 26 63 40 127 40h146c76 0 109 -9 140 -37c39 -35 68 -101 68 -313c0 -204 -29 -277 -70 -314c-33 -30 -67 -36 -147 -36h-147
c-59 0 -95 10 -117 33c-31 30 -44 67 -45 157h111c3 -52 8 -70 18 -80s24 -14 55 -14h125c44 0 56 6 67 16zM268 368h124c28 0 54 7 86 23c-3 142 -20 185 -32 197c-10 10 -20 16 -62 16h-116c-35 0 -51 -4 -64 -17c-14 -14 -19 -47 -19 -100s5 -88 19 -102
c13 -13 29 -17 64 -17z" />
    <glyph glyph-name="period" unicode="." horiz-adv-x="272" 
d="M72 134h128v-134h-128v134z" />
    <glyph glyph-name="comma" unicode="," horiz-adv-x="272" 
d="M72 134h128v-128c0 -29 -9 -47 -29 -68l-87 -88l-36 30l65 88c7 10 8 15 8 25v7h-49v134z" />
    <glyph glyph-name="colon" unicode=":" horiz-adv-x="276" 
d="M74 134h128v-134h-128v134zM74 540h128v-134h-128v134z" />
    <glyph glyph-name="semicolon" unicode=";" horiz-adv-x="275" 
d="M74 540h131v-134h-131v134zM74 134h128v-128c0 -29 -9 -47 -29 -68l-87 -88l-36 30l65 88c7 10 8 15 8 25v7h-49v134z" />
    <glyph glyph-name="ellipsis" unicode="&#x2026;" horiz-adv-x="854" 
d="M82 130h122v-130h-122v130zM366 130h122v-130h-122v130zM650 130h122v-130h-122v130z" />
    <glyph glyph-name="periodcentered" unicode="&#xb7;" horiz-adv-x="289" 
d="M82 385h125v-133h-125v133z" />
    <glyph glyph-name="bullet" unicode="&#x2022;" horiz-adv-x="530" 
d="M152 232c-19 19 -27 43 -27 131s8 112 27 131c15 15 31 19 64 19h98c33 0 49 -4 64 -19c19 -19 27 -43 27 -131s-8 -112 -27 -131c-15 -15 -31 -19 -64 -19h-98c-33 0 -49 4 -64 19z" />
    <glyph glyph-name="ampersand" unicode="&#x26;" horiz-adv-x="711" 
d="M693 0h-142l-89 99h-9l-21 -31c-34 -49 -75 -69 -137 -69h-77c-59 0 -91 8 -117 34c-28 28 -40 67 -40 174c0 101 4 127 32 155c15 15 44 29 92 38l12 2c-12 26 -18 59 -18 107c0 97 8 133 35 160c22 22 52 31 117 31h87c46 0 77 -9 94 -26c29 -29 36 -67 36 -174h-106
c-1 78 -5 93 -11 99s-15 8 -38 8h-48c-33 0 -40 -3 -47 -10c-8 -8 -9 -26 -9 -89c0 -37 5 -62 10 -75c6 -14 19 -32 44 -60l103 -110h8l96 137h121l-152 -210zM274 91c39 0 63 7 84 37l31 44l-142 150l-28 -7c-17 -5 -30 -12 -38 -20s-13 -24 -13 -88c0 -75 5 -92 16 -103
c9 -9 22 -13 61 -13h29z" />
    <glyph glyph-name="exclam" unicode="!" horiz-adv-x="338" 
d="M198 220h-48l-50 443v37h138v-37zM105 134h128v-134h-128v134z" />
    <glyph glyph-name="exclamdown" unicode="&#xa1;" horiz-adv-x="335" 
d="M140 480h45l50 -443v-37h-135v37zM230 567h-125v133h125v-133z" />
    <glyph glyph-name="question" unicode="?" horiz-adv-x="546" 
d="M179 133h125v-133h-125v133zM39 478c1 119 9 163 37 191c23 23 58 31 112 31h158c61 0 92 -11 114 -33c27 -27 36 -62 36 -147c0 -88 -6 -116 -39 -149c-12 -12 -30 -24 -104 -57c-25 -11 -43 -22 -53 -32c-9 -9 -14 -22 -17 -62h-83v29c0 65 6 88 24 106
c15 15 35 27 90 51c31 13 48 24 56 32c11 11 15 27 15 78s-5 70 -12 77c-6 6 -16 9 -44 9h-122c-30 0 -37 -2 -45 -10c-6 -6 -11 -31 -13 -114h-110z" />
    <glyph glyph-name="questiondown" unicode="&#xbf;" horiz-adv-x="546" 
d="M367 567h-125v133h125v-133zM507 222c-1 -119 -9 -163 -37 -191c-23 -23 -58 -31 -112 -31h-158c-61 0 -92 11 -114 33c-27 27 -36 62 -36 147c0 88 6 116 39 149c12 12 30 24 104 57c25 11 43 22 53 32c9 9 14 22 17 62h83v-29c0 -65 -6 -88 -24 -106
c-15 -15 -35 -27 -90 -51c-31 -13 -48 -24 -56 -32c-11 -11 -15 -27 -15 -78s5 -70 12 -77c6 -6 16 -9 44 -9h122c30 0 37 2 45 10c6 6 11 31 13 114h110z" />
    <glyph glyph-name="quotedblleft" unicode="&#x201c;" horiz-adv-x="483" 
d="M194 430h-125v127c0 29 9 47 29 68l86 88l36 -30l-65 -88c-7 -10 -8 -15 -8 -25v-7h47v-133zM408 430h-125v127c0 29 9 47 29 68l86 88l36 -30l-65 -88c-7 -10 -8 -15 -8 -25v-7h47v-133z" />
    <glyph glyph-name="quotedblright" unicode="&#x201d;" horiz-adv-x="483" 
d="M289 700h125v-127c0 -29 -9 -47 -29 -68l-86 -88l-36 30l65 88c7 10 8 15 8 25v7h-47v133zM75 700h125v-127c0 -29 -9 -47 -29 -68l-86 -88l-36 30l65 88c7 10 8 15 8 25v7h-47v133z" />
    <glyph glyph-name="quoteleft" unicode="&#x2018;" horiz-adv-x="269" 
d="M194 430h-125v127c0 29 9 47 29 68l86 88l36 -30l-65 -88c-7 -10 -8 -15 -8 -25v-7h47v-133z" />
    <glyph glyph-name="quoteright" unicode="&#x2019;" horiz-adv-x="269" 
d="M75 700h125v-127c0 -29 -9 -47 -29 -68l-86 -88l-36 30l65 88c7 10 8 15 8 25v7h-47v133z" />
    <glyph glyph-name="quotedblbase" unicode="&#x201e;" horiz-adv-x="483" 
d="M72 133h125v-127c0 -29 -9 -47 -29 -68l-86 -88l-36 30l65 88c7 10 8 15 8 25v7h-47v133zM286 133h125v-127c0 -29 -9 -47 -29 -68l-86 -88l-36 30l65 88c7 10 8 15 8 25v7h-47v133z" />
    <glyph glyph-name="quotesinglbase" unicode="&#x201a;" horiz-adv-x="269" 
d="M72 133h125v-127c0 -29 -9 -47 -29 -68l-86 -88l-36 30l65 88c7 10 8 15 8 25v7h-47v133z" />
    <glyph glyph-name="guillemotleft" unicode="&#xab;" horiz-adv-x="640" 
d="M65 233v74l144 147h121l-168 -183l170 -185h-123zM313 233v74l144 147h121l-168 -183l170 -185h-123z" />
    <glyph glyph-name="guillemotright" unicode="&#xbb;" horiz-adv-x="640" 
d="M575 233l-144 -147h-123l170 185l-168 183h121l144 -147v-74zM327 233l-144 -147h-123l170 185l-168 183h121l144 -147v-74z" />
    <glyph glyph-name="guilsinglleft" unicode="&#x2039;" horiz-adv-x="392" 
d="M65 233v74l144 147h121l-168 -183l170 -185h-123z" />
    <glyph glyph-name="guilsinglright" unicode="&#x203a;" horiz-adv-x="392" 
d="M327 233l-144 -147h-123l170 185l-168 183h121l144 -147v-74z" />
    <glyph glyph-name="hyphen" unicode="-" horiz-adv-x="410" 
d="M348 265h-286v107h286v-107z" />
    <glyph glyph-name="endash" unicode="&#x2013;" horiz-adv-x="560" 
d="M488 266h-416v105h416v-105z" />
    <glyph glyph-name="emdash" unicode="&#x2014;" horiz-adv-x="1000" 
d="M928 267h-856v103h856v-103z" />
    <glyph glyph-name="slash" unicode="/" horiz-adv-x="503" 
d="M65 -160h-106l408 870h106z" />
    <glyph glyph-name="backslash" unicode="\" 
d="M438 -160l-408 870h103l408 -870h-103z" />
    <glyph glyph-name="bar" unicode="|" horiz-adv-x="349" 
d="M222 -160h-95v940h95v-940z" />
    <glyph glyph-name="parenleft" unicode="(" horiz-adv-x="404" 
d="M97 275c0 105 4 193 9 221c8 46 41 100 134 214h77c-64 -117 -87 -166 -94 -197c-8 -38 -12 -99 -12 -238s4 -200 12 -238c7 -31 30 -80 94 -197h-77c-93 114 -126 168 -134 214c-5 27 -9 116 -9 221z" />
    <glyph glyph-name="parenright" unicode=")" horiz-adv-x="404" 
d="M307 275c0 -105 -4 -194 -9 -221c-8 -46 -41 -100 -134 -214h-77c64 117 87 166 94 197c8 38 12 99 12 238s-4 200 -12 238c-7 31 -30 80 -94 197h77c93 -114 126 -168 134 -214c5 -28 9 -116 9 -221z" />
    <glyph glyph-name="bracketleft" unicode="[" horiz-adv-x="458" 
d="M103 700h288v-88h-187v-674h187v-88h-288v850z" />
    <glyph glyph-name="bracketright" unicode="]" horiz-adv-x="458" 
d="M355 700v-850h-288v88h187v674h-187v88h288z" />
    <glyph glyph-name="braceleft" unicode="{" horiz-adv-x="460" 
d="M62 243v64c74 7 99 18 108 27s12 20 12 34c0 33 -18 106 -18 158c0 46 22 79 139 184h77c-94 -117 -109 -149 -109 -172c0 -46 18 -115 18 -156c0 -61 -19 -85 -112 -106v-2c93 -21 112 -50 112 -111c0 -34 -18 -115 -18 -151c0 -23 15 -55 109 -172h-77
c-117 105 -139 138 -139 184c0 47 18 122 18 163c0 11 -2 20 -10 28c-9 9 -36 21 -110 28z" />
    <glyph glyph-name="braceright" unicode="}" horiz-adv-x="460" 
d="M398 243c-74 -7 -101 -19 -110 -28c-8 -8 -10 -17 -10 -28c0 -41 18 -116 18 -163c0 -46 -22 -79 -139 -184h-77c94 117 109 149 109 172c0 36 -18 117 -18 151c0 61 19 90 112 111v2c-93 21 -112 45 -112 106c0 41 18 110 18 156c0 23 -15 55 -109 172h77
c117 -105 139 -138 139 -184c0 -52 -18 -125 -18 -158c0 -14 3 -25 12 -34s34 -20 108 -27v-64z" />
    <glyph glyph-name="at" unicode="@" horiz-adv-x="944" 
d="M715 99c36 0 50 4 63 17c22 22 32 65 32 206c0 192 -24 271 -58 305c-28 28 -58 39 -142 39h-266c-92 0 -119 -13 -151 -45c-34 -34 -59 -110 -59 -346s25 -312 60 -347c31 -31 61 -44 150 -44h413v-34h-416c-106 0 -142 22 -175 55c-37 37 -69 116 -69 370
s32 333 69 370c33 33 69 55 175 55h273c101 0 137 -19 170 -52c39 -39 63 -136 63 -326c0 -150 -16 -203 -43 -230c-20 -20 -45 -30 -79 -30h-39c-46 0 -78 15 -119 55c-51 -46 -69 -55 -103 -55h-39c-50 0 -76 8 -96 28c-23 23 -42 65 -42 189s19 166 42 189
c20 20 46 28 96 28h39c34 0 52 -9 103 -55l19 55h63l-6 -110v-238c0 -17 5 -28 13 -36c7 -7 23 -13 59 -13zM484 138c26 0 47 6 74 20v240c-27 15 -47 22 -70 22h-56c-23 0 -34 -3 -42 -11c-9 -9 -16 -33 -16 -130s7 -121 16 -130c8 -8 19 -11 42 -11h52z" />
    <glyph glyph-name="copyright" unicode="&#xa9;" horiz-adv-x="788" 
d="M155 52c-36 36 -66 108 -66 298c0 192 30 262 66 298c32 33 66 52 168 52h142c102 0 136 -19 168 -52c36 -36 66 -106 66 -298s-30 -262 -66 -298c-32 -33 -66 -52 -168 -52h-142c-102 0 -136 19 -168 52zM122 350c0 -176 24 -243 57 -277c27 -29 58 -43 147 -43h136
c89 0 119 13 146 42c33 34 58 100 58 278s-25 243 -58 277c-27 29 -57 43 -146 43h-136c-89 0 -120 -13 -147 -42c-33 -34 -57 -100 -57 -278zM544 298c-3 -77 -10 -99 -31 -118c-13 -11 -27 -15 -62 -15h-107c-35 0 -50 4 -62 15c-21 19 -35 47 -35 177s12 158 34 177
c14 12 29 16 64 16h106c35 0 49 -4 62 -16c21 -19 29 -44 30 -110h-63c-1 48 -6 57 -12 63c-4 4 -8 6 -27 6h-87c-19 0 -24 -2 -28 -6c-6 -6 -13 -18 -13 -130c0 -111 7 -124 13 -130c4 -4 9 -6 28 -6h87c19 0 23 3 27 6c6 6 11 13 12 71h64z" />
    <glyph glyph-name="published" unicode="&#x2117;" horiz-adv-x="788" 
d="M155 52c-36 36 -66 108 -66 298c0 192 30 262 66 298c32 33 66 52 168 52h142c102 0 136 -19 168 -52c36 -36 66 -106 66 -298s-30 -262 -66 -298c-32 -33 -66 -52 -168 -52h-142c-102 0 -136 19 -168 52zM122 350c0 -176 24 -243 57 -277c27 -29 58 -43 147 -43h136
c89 0 119 13 146 42c33 34 58 100 58 278s-25 243 -58 277c-27 29 -57 43 -146 43h-136c-89 0 -120 -13 -147 -42c-33 -34 -57 -100 -57 -278zM328 359h114c20 0 26 2 30 5c6 5 14 16 14 63c0 46 -8 58 -14 63c-4 4 -10 5 -30 5h-114v-136zM549 430c0 -70 -19 -96 -35 -111
c-12 -12 -27 -14 -55 -14h-131v-140h-64v385h195c28 0 47 -3 59 -14c16 -16 31 -40 31 -106z" />
    <glyph glyph-name="registered.alt" horiz-adv-x="788" 
d="M155 52c-36 36 -66 108 -66 298c0 192 30 262 66 298c32 33 66 52 168 52h142c102 0 136 -19 168 -52c36 -36 66 -106 66 -298s-30 -262 -66 -298c-32 -33 -66 -52 -168 -52h-142c-102 0 -136 19 -168 52zM122 350c0 -176 24 -243 57 -277c27 -29 58 -43 147 -43h136
c89 0 119 13 146 42c33 34 58 100 58 278s-25 243 -58 277c-27 29 -57 43 -146 43h-136c-89 0 -120 -13 -147 -42c-33 -34 -57 -100 -57 -278zM320 374h126c16 0 21 2 25 6c5 5 11 15 11 55c0 39 -6 50 -11 55c-4 4 -9 5 -25 5h-126v-121zM476 269c-1 31 -4 38 -12 45
c-7 6 -18 8 -40 8h-104v-157h-64v385h210c25 0 43 -4 55 -16c15 -15 25 -36 25 -93c0 -69 -19 -88 -63 -94v-1c41 -8 58 -18 59 -73c1 -54 4 -87 6 -108h-64c-4 26 -7 60 -8 104z" />
    <glyph glyph-name="registered" unicode="&#xae;" horiz-adv-x="422" 
d="M171 337h80c46 0 63 7 77 22c17 17 29 52 29 148s-12 131 -29 148c-14 15 -31 22 -77 22h-80c-46 0 -63 -7 -77 -22c-17 -17 -29 -52 -29 -148s12 -131 29 -148c14 -15 31 -22 77 -22zM253 314h-84c-56 0 -74 11 -92 29c-19 20 -37 58 -37 164s18 144 37 164
c18 18 36 29 92 29h84c56 0 74 -11 92 -29c19 -20 37 -58 37 -164s-18 -144 -37 -164c-18 -18 -36 -29 -92 -29zM259 554c0 21 -5 27 -7 29s-4 3 -13 3h-68v-65h68c9 0 11 1 13 3s7 8 7 30zM256 462c0 17 -2 21 -6 25c-4 3 -10 4 -22 4h-57v-85h-36v211h116
c14 0 23 -2 30 -9c8 -8 13 -20 13 -51c0 -37 -10 -48 -34 -51v-1c23 -4 31 -9 33 -40c1 -30 1 -47 3 -59h-36c-3 12 -4 29 -4 56z" />
    <glyph glyph-name="servicemark" unicode="&#x2120;" horiz-adv-x="863" 
d="M339 427c0 -54 -5 -77 -22 -94c-12 -12 -29 -18 -59 -18h-137c-29 0 -47 4 -59 16c-16 15 -21 34 -22 105h64c1 -48 3 -57 7 -61s7 -5 24 -5h109c16 0 21 0 25 5c5 5 6 18 6 51c0 28 0 33 -5 40c-4 5 -12 8 -26 9l-126 11c-27 2 -44 7 -55 18c-16 16 -18 36 -18 87
c0 49 5 74 22 91c12 12 30 18 58 18h127c30 0 47 -4 59 -16c16 -16 19 -35 21 -102h-64c0 45 -3 53 -7 58c-3 3 -8 5 -24 5h-98c-15 0 -20 -1 -24 -5c-5 -5 -6 -19 -6 -48c0 -27 1 -35 7 -41c5 -5 11 -6 24 -7l125 -11c26 -2 43 -7 55 -19c15 -15 19 -35 19 -87zM823 700
v-385h-63v323h-10l-85 -302c-5 -17 -11 -21 -29 -21h-34c-18 0 -23 4 -28 21l-85 302h-10v-323h-60v385h97c18 0 23 -3 28 -22l74 -291h9l74 291c5 19 9 22 28 22h94z" />
    <glyph glyph-name="trademark" unicode="&#x2122;" horiz-adv-x="843" 
d="M803 700v-385h-63v323h-10l-85 -302c-5 -17 -11 -21 -29 -21h-34c-18 0 -23 4 -28 21l-85 302h-10v-323h-60v385h97c18 0 23 -3 28 -22l74 -291h9l74 291c5 19 9 22 28 22h94zM329 646h-112v-331h-64v331h-113v54h289v-54z" />
    <glyph glyph-name="asterisk" unicode="*" horiz-adv-x="518" 
d="M135 395l80 99l35 -20l-46 -119zM80 570l126 -20v-40l-126 -20v80zM135 665l69 40l46 -119l-35 -20zM383 395l-69 -40l-46 119l35 20zM438 570v-80l-126 20v40zM383 665l-80 -99l-35 20l46 119z" />
    <glyph glyph-name="dagger" unicode="&#x2020;" horiz-adv-x="478" 
d="M75 576l119 -26v-40l-119 -26v92zM403 576v-92l-119 26v40zM290 700l-26 -130h-50l-26 130h102zM286 377l-25 -260h-44l-25 260l22 113h50z" />
    <glyph glyph-name="daggerdbl" unicode="&#x2021;" horiz-adv-x="492" 
d="M82 576l119 -26v-40l-119 -26v92zM410 576v-92l-119 26v40zM297 700l-26 -130h-50l-26 130h102zM82 124v92l119 -26v-40zM410 124l-119 26v40l119 26v-92zM297 0h-102l26 130h50zM292 350l-21 -140h-50l-21 140l21 140h50z" />
    <glyph glyph-name="dollar" unicode="$" horiz-adv-x="650" 
d="M373 -90h-91v90h-63c-55 0 -93 8 -116 31c-28 28 -36 63 -38 189h109c2 -87 6 -105 14 -113s18 -11 48 -11h50v210l-77 7c-51 5 -81 13 -102 34c-28 28 -33 63 -33 155c0 90 9 134 41 166c21 21 58 32 111 32h56v80h91v-80h49c55 0 91 -8 113 -30c29 -29 37 -60 41 -185
h-109c-2 82 -6 100 -14 108c-6 6 -13 11 -43 11h-41v-202l84 -8c48 -5 79 -12 100 -33c27 -27 35 -63 35 -158c0 -97 -9 -139 -41 -171c-21 -21 -52 -32 -108 -32h-66v-90zM422 293l-53 5v-202h54c29 0 36 3 44 11c9 9 13 36 13 95c0 51 -2 66 -13 77c-8 8 -17 11 -45 14z
M195 427c8 -8 17 -10 45 -13l46 -5v195h-48c-28 0 -35 -3 -43 -11c-9 -9 -13 -37 -13 -90c0 -49 2 -65 13 -76z" />
    <glyph glyph-name="sterling" unicode="&#xa3;" horiz-adv-x="670" 
d="M606 96v-96h-551v96h92v184h-92v92h92v94c0 118 11 166 45 200c28 28 64 36 153 36h91c66 0 100 -7 125 -32c32 -32 40 -67 42 -195h-109c-2 88 -7 107 -17 117c-8 8 -21 13 -59 13h-72c-37 0 -60 -3 -71 -14c-12 -12 -17 -39 -17 -114v-105h201v-92h-201v-184h348z" />
    <glyph glyph-name="Euro" unicode="&#x20ac;" horiz-adv-x="695" 
d="M412 400h-184v-50v-44h184v-93h-181c5 -81 15 -99 23 -106s16 -11 50 -11h143c34 0 42 4 50 11c11 10 20 30 23 134h111c-5 -139 -21 -178 -60 -213c-24 -21 -48 -28 -114 -28h-164c-66 0 -91 7 -114 28c-30 27 -51 63 -59 185h-74v93h70v44v50h-70v93h74
c8 116 29 152 59 179c23 21 48 28 114 28h164c66 0 91 -7 114 -28c39 -35 57 -81 59 -202h-110c-3 88 -12 113 -23 123c-8 7 -16 11 -50 11h-143c-34 0 -42 -4 -50 -11s-18 -24 -23 -100h181v-93z" />
    <glyph glyph-name="yen" unicode="&#xa5;" horiz-adv-x="672" 
d="M566 331v-93h-175v-238h-112v238h-178v93h147l-205 369h123l168 -311h8l165 311h117l-204 -369h146z" />
    <glyph glyph-name="cent" unicode="&#xa2;" horiz-adv-x="544" 
d="M212 91c-53 0 -85 9 -107 31c-35 35 -45 77 -45 231s10 196 45 231c22 22 54 31 107 31h25v87h85v-87h43c49 0 71 -10 88 -27c26 -26 36 -62 36 -163h-98c-2 70 -6 84 -12 90s-14 9 -37 9h-24v-342h25c22 0 32 2 39 9s11 29 11 97h98c0 -112 -10 -143 -37 -170
c-16 -16 -41 -27 -88 -27h-44v-93h-85v93h-25zM177 192c7 -7 15 -10 46 -10h18v342h-18c-31 0 -39 -3 -46 -10c-10 -10 -15 -31 -15 -161s5 -151 15 -161z" />
    <glyph glyph-name="numbersign" unicode="#" horiz-adv-x="742" 
d="M103 537h125l40 163h99l-40 -163h173l40 163h99l-40 -163h105v-91h-127l-42 -176h104v-91h-126l-43 -179h-99l43 179h-173l-43 -179h-99l43 179h-104v91h126l42 176h-103v91zM302 450l-44 -184h181l44 184h-181z" />
    <glyph glyph-name="paragraph" unicode="&#xb6;" horiz-adv-x="560" 
d="M44 482c0 120 28 164 57 192c21 20 57 26 108 26h269v-700h-112v258h-157c-51 0 -78 4 -101 26c-29 27 -64 72 -64 198z" />
    <glyph glyph-name="section" unicode="&#xa7;" horiz-adv-x="644" 
d="M47 359c0 56 8 85 28 105c15 15 36 22 72 25c-7 18 -11 40 -11 71c0 46 6 82 33 109c22 22 54 32 119 32h96c49 0 76 -8 93 -25c23 -23 31 -48 33 -136h-101c-2 46 -5 57 -12 64c-6 6 -15 8 -38 8h-62c-33 0 -40 -3 -47 -10c-8 -8 -9 -26 -9 -51c0 -28 5 -38 11 -44
c7 -7 21 -12 46 -14l179 -14c55 -4 75 -11 93 -29c19 -19 27 -45 27 -109c0 -56 -8 -85 -28 -105c-16 -16 -36 -23 -72 -25c7 -18 11 -41 11 -71c0 -46 -6 -82 -33 -109c-22 -22 -54 -32 -119 -32h-96c-49 0 -76 8 -93 25c-23 23 -31 48 -33 136h101c2 -47 5 -57 12 -64
c6 -6 15 -8 38 -8h62c33 0 40 3 47 10c8 8 9 26 9 51c0 28 -5 38 -11 44c-7 7 -21 12 -46 14l-179 14c-55 4 -75 11 -93 29c-19 19 -27 45 -27 109zM143 364c0 -23 0 -38 10 -49c7 -8 18 -11 49 -13l239 -17c31 -2 42 -1 48 5c10 10 12 23 12 46s0 38 -10 49
c-7 8 -18 11 -49 13l-239 17c-31 2 -42 1 -48 -5c-10 -10 -12 -23 -12 -46z" />
    <glyph glyph-name="ordfeminine" unicode="&#xaa;" horiz-adv-x="499" 
d="M406 315h-75v46c-47 -40 -64 -47 -94 -47h-55c-35 0 -53 5 -70 22c-13 13 -24 36 -24 86c0 46 8 77 24 93c17 17 44 29 126 29c31 0 68 -4 93 -11v35c0 43 -1 52 -7 58c-5 5 -12 6 -30 6h-84c-13 0 -18 -1 -22 -5s-5 -12 -6 -46h-77c1 57 7 82 23 98c17 17 31 21 66 21
h113c44 0 62 -7 75 -20c19 -19 24 -38 24 -107v-258zM92 165v67h314v-67h-314zM250 382c27 0 46 4 81 24v77h-96c-46 0 -55 -1 -61 -7s-8 -19 -8 -43c0 -32 2 -40 7 -45s13 -6 28 -6h49z" />
    <glyph glyph-name="ordmasculine" unicode="&#xba;" horiz-adv-x="538" 
d="M324 315h-105c-45 0 -67 8 -85 26c-26 26 -36 66 -36 168c0 98 10 139 36 165c18 18 40 26 85 26h105c45 0 67 -8 85 -26c26 -26 36 -67 36 -165c0 -102 -10 -142 -36 -168c-18 -18 -40 -26 -85 -26zM235 389h73c25 0 31 3 37 9s14 25 14 111c0 82 -8 102 -14 108
s-12 9 -37 9h-73c-25 0 -31 -3 -37 -9s-14 -26 -14 -108c0 -85 8 -105 14 -111s12 -9 37 -9zM100 165v67h343v-67h-343z" />
    <glyph glyph-name="degree" unicode="&#xb0;" horiz-adv-x="426" 
d="M185 439h56c22 0 26 2 32 9c5 5 10 21 10 85s-5 80 -10 85c-6 7 -10 9 -32 9h-56c-22 0 -26 -2 -32 -9c-5 -5 -10 -21 -10 -85s5 -80 10 -85c6 -7 10 -9 32 -9zM362 533c0 -91 -10 -119 -33 -142c-16 -16 -39 -25 -78 -25h-76c-39 0 -62 9 -78 25c-23 23 -33 51 -33 142
s10 119 33 142c16 16 39 25 78 25h76c39 0 62 -9 78 -25c23 -23 33 -51 33 -142z" />
    <glyph glyph-name="percent" unicode="%" horiz-adv-x="828" 
d="M251 523c0 67 -5 89 -10 94c-6 6 -11 8 -29 8h-35c-18 0 -23 -2 -29 -8c-5 -5 -10 -27 -10 -94s5 -89 10 -94c6 -6 11 -8 29 -8h35c18 0 23 2 29 8c5 5 10 27 10 94zM336 523c0 -100 -13 -131 -35 -153c-15 -15 -35 -24 -76 -24h-61c-41 0 -61 9 -76 24
c-22 22 -35 53 -35 153s13 131 35 153c15 15 35 24 76 24h61c41 0 61 -9 76 -24c22 -22 35 -53 35 -153zM216 -3h-87l258 373l225 333h87l-258 -373zM690 177c0 67 -5 89 -10 94c-6 6 -11 8 -29 8h-35c-18 0 -23 -2 -29 -8c-5 -5 -10 -27 -10 -94s5 -89 10 -94
c6 -6 11 -8 29 -8h35c18 0 23 2 29 8c5 5 10 27 10 94zM775 177c0 -100 -13 -131 -35 -153c-15 -15 -35 -24 -76 -24h-61c-41 0 -61 9 -76 24c-22 22 -35 53 -35 153s13 131 35 153c15 15 35 24 76 24h61c41 0 61 -9 76 -24c22 -22 35 -53 35 -153z" />
    <glyph glyph-name="quotedbl" unicode="&#x22;" horiz-adv-x="503" 
d="M120 427l-40 253v20h138v-20l-40 -253h-58zM334 427l-40 253v20h138v-20l-40 -253h-58z" />
    <glyph glyph-name="quotesingle" unicode="'" horiz-adv-x="289" 
d="M120 427l-40 253v20h138v-20l-40 -253h-58z" />
    <glyph glyph-name="plus" unicode="+" horiz-adv-x="508" 
d="M301 561v-151h151v-94h-151v-151h-94v151h-151v94h151v151h94z" />
    <glyph glyph-name="minus" unicode="&#x2212;" horiz-adv-x="508" 
d="M56 316v94h396v-94h-396z" />
    <glyph glyph-name="divide" unicode="&#xf7;" horiz-adv-x="508" 
d="M56 316v94h396v-94h-396zM197 152v112h114v-112h-114zM197 462v112h114v-112h-114z" />
    <glyph glyph-name="equal" unicode="=" horiz-adv-x="508" 
d="M66 415v102h376v-102h-376zM66 209v102h376v-102h-376z" />
    <glyph glyph-name="multiply" unicode="&#xd7;" horiz-adv-x="508" 
d="M135 548l119 -119l119 119l66 -66l-119 -119l119 -119l-66 -66l-119 119l-119 -119l-66 66l119 119l-119 119z" />
    <glyph glyph-name="less" unicode="&#x3c;" horiz-adv-x="508" 
d="M435 494l-274 -130l274 -130v-107l-376 189v94l376 189v-105z" />
    <glyph glyph-name="greater" unicode="&#x3e;" horiz-adv-x="508" 
d="M73 127v105l273 130l-273 130v107l376 -189v-94z" />
    <glyph glyph-name="plusminus" unicode="&#xb1;" horiz-adv-x="508" 
d="M301 635v-151h151v-94h-151v-151h-94v151h-151v94h151v151h94zM56 90v94h396v-94h-396z" />
    <glyph glyph-name="underscore" unicode="_" 
d="M-2 -150v85h504v-85h-504z" />
    <glyph glyph-name="hfjslug" horiz-adv-x="694" 
d="M644 -200h-208l-8 14h-163l-8 -14h-207v303c18 0 32 14 32 32c0 17 -14 32 -32 32v554h100l30 79h334l29 -79h101v-921zM400 563v-172h15v78h38v14h-38v66h43v14h-58zM184 563v-172h15v79h47v-79h15v172h-15v-79h-47v79h-15zM460 394c5 -2 14 -4 21 -4c20 0 31 11 31 36
v137h-16v-137c0 -16 -5 -22 -16 -22c-6 0 -15 3 -20 5v-15zM371 465l-13 3c-2 -9 -5 -21 -8 -30h-1l-16 31c13 12 23 26 23 42c0 15 -9 31 -27 31c-17 0 -28 -16 -28 -31s6 -24 14 -39c-15 -12 -23 -28 -23 -47c0 -22 12 -37 29 -37c13 0 23 9 29 24h1l12 -24l12 6l-17 32
c5 12 9 25 13 39zM523 323v-46h8v12l8 8l15 -20h10l-20 26l18 20h-10l-20 -24h-1v24h-8zM488 292l10 -15h9l-12 17c5 2 10 6 10 14c0 9 -7 15 -17 15h-20v-46h8v15h12zM426 276c14 0 24 11 24 24c0 12 -10 24 -24 24s-24 -12 -24 -24c0 -13 10 -24 24 -24zM370 301l-13 22
h-9l18 -29v-17h8v17l18 29h-9zM193 323v-46h34v7h-26v13h23v7h-23v12h26v7h-34zM132 323v-46h8v32l25 -32h7v46h-8v-32l-25 32h-7zM241 323l14 -47h8l11 34h1l11 -34h8l14 47h-8l-10 -35h-1l-11 35h-7l-11 -35h-1l-10 35h-8zM327 479c-7 13 -12 22 -12 32s6 19 14 19
s13 -9 13 -19c0 -12 -5 -21 -15 -32zM342 423c-5 -13 -12 -21 -20 -21c-9 0 -16 10 -16 25c0 13 7 26 16 35zM487 299h-11v17h11c6 0 10 -3 10 -8s-4 -9 -10 -9zM426 283c-10 0 -16 8 -16 17c0 8 6 17 16 17s16 -9 16 -17c0 -9 -6 -17 -16 -17z" />
    <glyph glyph-name="acute" unicode="&#xb4;" 
d="M137 608v5l85 107h166v-5l-150 -107h-101z" />
    <glyph glyph-name="hungarumlaut" unicode="&#x2dd;" 
d="M27 608v5l83 107h155v-5l-142 -107h-96zM231 608v5l91 107h155v-5l-150 -107h-96z" />
    <glyph glyph-name="caron.alt" 
d="M224 552l-39 16l24 84c2 9 3 15 3 23s-1 14 -3 23l-23 82v20h114v-74c0 -54 -7 -74 -34 -113z" />
    <glyph glyph-name="grave" unicode="`" 
d="M363 608h-101l-150 107v5h166l85 -107v-5z" />
    <glyph glyph-name="circumflex" unicode="&#x2c6;" 
d="M323 608l-74 52l-74 -52h-85v5l100 117h120l100 -117v-5h-87z" />
    <glyph glyph-name="caron" unicode="&#x2c7;" 
d="M190 608l-100 117v5h87l74 -52l74 52h85v-5l-100 -117h-120z" />
    <glyph glyph-name="breve" unicode="&#x2d8;" 
d="M250 680c47 0 68 19 76 50h76c-3 -79 -57 -125 -152 -125s-149 46 -152 125h76c8 -31 29 -50 76 -50z" />
    <glyph glyph-name="tilde" unicode="&#x2dc;" 
d="M100 608v63c0 24 5 41 14 50c7 7 17 13 38 13h15c24 0 40 -4 82 -20l70 -26l28 46h53v-63c0 -24 -5 -41 -14 -50c-7 -7 -17 -13 -38 -13h-15c-24 0 -40 4 -82 20l-70 26l-28 -46h-53z" />
    <glyph glyph-name="macron" unicode="&#xaf;" 
d="M99 610v85h302v-85h-302z" />
    <glyph glyph-name="dieresis" unicode="&#xa8;" 
d="M102 610v110h111v-110h-111zM287 610v110h111v-110h-111z" />
    <glyph glyph-name="dotaccent" unicode="&#x2d9;" 
d="M191 618v112h118v-112h-118z" />
    <glyph glyph-name="ring" unicode="&#x2da;" 
d="M281 754h-62c-17 0 -21 -1 -26 -6s-8 -14 -8 -38s3 -33 8 -38s9 -6 26 -6h62c17 0 21 1 26 6s8 14 8 38s-3 33 -8 38s-9 6 -26 6zM291 610h-82c-32 0 -54 7 -67 20c-20 20 -26 41 -26 80s6 60 26 80c13 13 35 20 67 20h82c32 0 54 -7 67 -20c20 -20 26 -41 26 -80
s-6 -60 -26 -80c-13 -13 -35 -20 -67 -20z" />
    <glyph glyph-name="commaaccent" unicode="&#x326;" 
d="M203 -70h112v-114c0 -27 -8 -43 -26 -62l-77 -79l-32 27l58 79c6 9 7 14 7 23v6h-42v120z" />
    <glyph glyph-name="cedilla" unicode="&#xb8;" 
d="M267 -28c32 0 51 -4 62 -15c12 -12 19 -31 19 -68s-7 -55 -19 -67s-33 -16 -65 -16h-76l-57 40v21h118c12 0 17 1 20 4s4 11 4 19s-1 16 -4 19s-8 4 -20 4h-44v59h62z" />
    <glyph glyph-name="ogonek" unicode="&#x2db;" 
d="M290 -70h75c0 -75 -5 -95 -22 -110c-12 -11 -29 -14 -54 -14h-76c-25 0 -42 3 -54 14c-17 15 -22 35 -22 77c0 30 1 45 15 67c13 21 51 52 78 71l28 -27c-4 -4 -30 -30 -36 -43c-5 -11 -6 -19 -6 -45c0 -31 1 -36 4 -39s6 -4 14 -4h37c9 0 11 1 14 4s5 9 5 49z" />
    <glyph glyph-name="asciicircum" unicode="^" horiz-adv-x="524" 
d="M363 478l-102 150l-102 -150h-77v5l150 220h60l150 -220v-5h-79z" />
    <glyph glyph-name="asciitilde" unicode="~" horiz-adv-x="434" 
d="M67 255v63c0 24 5 41 14 50c7 7 17 13 38 13h15c24 0 40 -4 82 -20l70 -26l28 46h53v-63c0 -24 -5 -41 -14 -50c-7 -7 -17 -13 -38 -13h-15c-24 0 -40 4 -82 20l-70 26l-28 -46h-53z" />
    <glyph glyph-name="fraction" unicode="&#x2044;" horiz-adv-x="590" 
d="M97 -3h-87l258 373l225 333h87l-258 -373z" />
    <glyph glyph-name="i.dot" horiz-adv-x="256" 
d="M187 730v-112h-118v112h118zM180 540v-540h-104v540h104z" />
    <glyph glyph-name="space" unicode=" " horiz-adv-x="225" 
 />
    <glyph glyph-name="uni00A0" unicode="&#xa0;" horiz-adv-x="165" 
 />
    <glyph glyph-name="emspace" unicode="&#x2003;" horiz-adv-x="1000" 
 />
    <glyph glyph-name="enspace" unicode="&#x2002;" 
 />
    <glyph glyph-name="threeperemspace" unicode="&#x2004;" horiz-adv-x="333" 
 />
    <glyph glyph-name="fourperemspace" unicode="&#x2005;" horiz-adv-x="250" 
 />
    <glyph glyph-name="thinspace" unicode="&#x2009;" horiz-adv-x="133" 
 />
    <glyph glyph-name="hairspace" unicode="&#x200a;" horiz-adv-x="75" 
 />
    <glyph glyph-name="NUL" unicode="&#xe05d;" horiz-adv-x="0" 
 />
    </font>
</defs>
</svg>
